<svg id="contact-icon1" xmlns="http://www.w3.org/2000/svg" width="32" height="32" viewBox="0 0 32 32">
  <circle id="Ellipse_15" data-name="Ellipse 15" cx="16" cy="16" r="16" fill="#fff"/>
  <g id="phone-call_curved" transform="translate(6.667 8)">
    <path id="Path_7" data-name="Path 7" d="M15.526,5.421a5.67,5.67,0,0,1,3.368,1.684,5.67,5.67,0,0,1,1.684,3.368M15.105,8.368a3.27,3.27,0,0,1,1.684.842,3.269,3.269,0,0,1,.842,1.684M9.8,16.2C3.992,10.39,4.818,7.729,5.43,6.872c.079-.139,2.018-3.041,4.1-1.338,5.159,4.249-1.158,4.1,2.96,7.981s3.732-2.2,7.98,2.959c1.7,2.079-1.2,4.018-1.337,4.1C18.271,21.183,15.61,22.009,9.8,16.2Z" transform="translate(-5 -5)" fill="#fff" stroke="#643694" stroke-linecap="round" stroke-linejoin="round" stroke-width="1"/>
  </g>
</svg>
