<svg xmlns="http://www.w3.org/2000/svg" xmlns:xlink="http://www.w3.org/1999/xlink" width="400" height="128.997" viewBox="0 0 400 128.997">
  <defs>
    <radialGradient id="radial-gradient" cx="0.499" cy="0.369" r="0.534" gradientTransform="matrix(0.707, 0.706, -0.707, 0.706, 0.407, -0.244)" gradientUnits="objectBoundingBox">
      <stop offset="0" stop-color="#48afe0"/>
      <stop offset="0.227" stop-color="#48afe0"/>
      <stop offset="0.385" stop-color="#2892c9"/>
      <stop offset="0.601" stop-color="#006dad"/>
      <stop offset="1" stop-color="#2a377a"/>
    </radialGradient>
  </defs>
  <g id="f-logo" transform="translate(-0.185 -1)">
    <g id="Group_122" data-name="Group 122" transform="translate(0.185 1)">
      <g id="Group_121" data-name="Group 121">
        <path id="Path_13" data-name="Path 13" d="M180.43,61.524a.74.74,0,0,1-1.011,0L163.239,45.344a.74.74,0,0,1,0-1.011l16.179-16.126a.74.74,0,0,1,1.011,0l16.126,16.179a.74.74,0,0,1,0,1.011Zm-10.218,3.3c-6.333,6.227-3.885,3.779-8.515,8.462L175.48,87.176c3.406,3.406,6.174,3.406,9.633,0L198.684,73.6,189.85,64.77l-9.367,9.367c-.373.373-.585.373-.9.053ZM159.727,34.7c-6.227-6.333-3.832-3.832-8.462-8.462L137.693,39.7c-3.406,3.406-3.406,6.174,0,9.633l14.05,14.05,8.835-8.835-9.952-9.846c-.373-.373-.373-.585-.053-.9Zm29.91-9.793c6.333-6.227,3.885-3.779,8.515-8.462L184.368,2.555c-3.406-3.406-6.174-3.406-9.633,0L161.057,16.232l8.888,8.781,9.473-9.473c.373-.373.585-.373.9-.053Zm10.431,30.23c6.227,6.227,3.832,3.885,8.515,8.515l13.625-13.518c3.406-3.406,3.406-6.174,0-9.633l-14.05-14.05-8.835,8.835,9.846,9.846c.373.373.373.585.053.9Z" transform="translate(175.237)" fill="url(#radial-gradient)"/>
        <path id="Path_14" data-name="Path 14" d="M5.879,41.156s5.641,6.493,13.305,6.493c4.151,0,7.877-2.235,7.877-6.493,0-9.367-25.812-8.569-25.812-25.653C1.249,6.615,8.966.069,19.557.069c6.44,0,16.286,3.034,16.286,10.8v5.109h-9.1V13.534c0-2.555-3.619-4.258-7.238-4.258-4.63,0-8.036,2.395-8.036,5.854,0,9.367,25.812,7.5,25.812,25.493,0,8.728-6.706,16.126-18.255,16.126A25.2,25.2,0,0,1,.185,48.234ZM45.1,24.232H39.994V16.408h5.322V5.657H54.9V16.408h8.941v7.824H54.9V40.145c0,6.493,5.109,7.4,7.823,7.4a8.6,8.6,0,0,0,1.756-.16v8.569a19.548,19.548,0,0,1-3.034.213c-5.482,0-16.392-1.6-16.392-14.849V24.232ZM87.467,15.5c11.283,0,17.457,8.249,17.457,18.681,0,1.171-.213,3.619-.213,3.619h-27.2c.8,6.972,5.854,10.591,11.815,10.591,6.333,0,11.07-4.417,11.07-4.417l4.1,6.812a23.927,23.927,0,0,1-15.86,5.961c-13.039,0-21.182-9.42-21.182-20.65C67.456,24.019,75.652,15.5,87.467,15.5Zm7.4,15.541c-.16-4.737-3.406-7.983-7.4-7.983-5,0-8.569,3.034-9.633,7.983Zm37.574.053h1.224v-.319c0-5.641-2.235-7.717-7.238-7.717-1.756,0-5.269.479-5.269,2.608v2.076h-9.1V23.593c0-7.345,10.378-8.09,14.423-8.09,13.146,0,16.978,6.866,16.978,15.7V45.893a1.567,1.567,0,0,0,1.7,1.7h3.087v8.249h-8.835c-3.619,0-5-2.022-5-4.311,0-1.011.053-1.7.053-1.7h-.16A12.877,12.877,0,0,1,122.38,56.8c-7.025,0-13.465-4.417-13.465-12.294C109.022,32.108,126.052,31.1,132.439,31.1Zm-7.557,18.042c5.269,0,8.941-5.588,8.941-10.378v-.9h-1.7c-5.109,0-13.2.692-13.2,6.174C118.921,46.638,120.837,49.139,124.882,49.139ZM168.629,15.5c8.569,0,11.336,4.79,11.336,4.79h.16s-.053-1.011-.053-2.342V10.98a1.519,1.519,0,0,0-1.7-1.7h-3.087V.974h9.367c3.619,0,5.269,1.6,5.269,5.269v39.65a1.567,1.567,0,0,0,1.7,1.7h3.034v8.249h-9.048c-3.566,0-4.843-1.7-4.843-3.992v-1.49h-.16s-3.246,6.44-12.294,6.44c-10.644,0-17.563-8.409-17.563-20.65C150.694,23.646,158.2,15.5,168.629,15.5Zm11.655,20.543c0-6.12-3.193-12.134-9.739-12.134-5.429,0-9.9,4.417-9.9,12.188,0,7.5,3.938,12.347,9.739,12.347C175.495,48.5,180.285,44.775,180.285,36.047ZM201.52,24.232h-4.843V16.408h4.843V15.237c0-12.88,10.591-14.583,16.073-14.583a22.162,22.162,0,0,1,3.3.213V9.223a12.141,12.141,0,0,0-2.022-.16c-2.767,0-7.557.692-7.557,6.387v.9h8.409v7.823h-8.409V55.792H201.52ZM244.789,31.1h1.224v-.319c0-5.641-2.235-7.717-7.238-7.717-1.756,0-5.269.479-5.269,2.608v2.076h-9.1V23.593c0-7.345,10.378-8.09,14.476-8.09,13.146,0,16.978,6.866,16.978,15.7V45.893a1.567,1.567,0,0,0,1.7,1.7h3.087v8.249h-8.835c-3.619,0-5-2.022-5-4.311,0-1.011.053-1.7.053-1.7h-.16A12.877,12.877,0,0,1,234.783,56.8c-7.025,0-13.465-4.417-13.465-12.294C221.371,32.108,238.4,31.1,244.789,31.1Zm-7.557,18.042c5.269,0,8.941-5.588,8.941-10.378v-.9h-1.7c-5.109,0-13.2.692-13.2,6.174C231.271,46.638,233.186,49.139,237.231,49.139Zm31.454-5.8s5,5.8,11.762,5.8c3.034,0,5.322-1.224,5.322-3.885,0-5.588-20.809-5.482-20.809-18.255,0-7.877,7.132-11.5,15.274-11.5,5.322,0,13.837,1.756,13.837,8.2v4.1H285.4V25.881c0-1.863-2.767-2.767-4.95-2.767-3.459,0-5.854,1.224-5.854,3.566,0,6.174,20.916,4.95,20.916,18.1,0,7.4-6.546,12.028-15.168,12.028a21.687,21.687,0,0,1-16.392-7.025Zm34.594-19.106h-5.109V16.408h5.322V5.657h9.58V16.408h8.941v7.824h-8.941V40.145c0,6.493,5.109,7.4,7.823,7.4a8.6,8.6,0,0,0,1.756-.16v8.569a19.548,19.548,0,0,1-3.034.213c-5.482,0-16.392-1.6-16.392-14.849V24.232Z" transform="translate(-0.185 72.194)"/>
      </g>
    </g>
  </g>
</svg>
