<svg xmlns="http://www.w3.org/2000/svg" width="230.013" height="65.179" viewBox="0 0 230.013 65.179">
  <g id="h-logo" transform="translate(0.005)">
    <g id="Group_163" data-name="Group 163" transform="translate(-0.005)">
      <g id="Group_159" data-name="Group 159">
        <g id="Group_157" data-name="Group 157" transform="translate(10.308)">
          <g id="Group_153" data-name="Group 153" transform="translate(4.26 14.479)">
            <g id="Group_151" data-name="Group 151">
              <path id="Path_41" data-name="Path 41" d="M46.714,51.079,29.98,63.287,42.188,46.554,29.98,29.82,46.714,42.028,63.447,29.82,51.239,46.554,63.447,63.287Z" transform="translate(-29.25 -29.085)" fill="#fff"/>
              <path id="Path_42" data-name="Path 42" d="M62.012,29.844,50.477,45.659l-.138.189.138.189L62.012,61.852,46.2,50.317l-.189-.138-.189.138L30,61.852,41.539,46.037l.138-.189-.138-.189L30,29.844,45.819,41.379l.189.138.189-.138L62.012,29.844m1.464-1.464L46.013,41.124,28.55,28.385,41.294,45.848,28.55,63.311,46.013,50.567,63.476,63.311,50.732,45.848,63.476,28.385h0Z" transform="translate(-28.55 -28.38)" fill="#6c3695"/>
            </g>
            <g id="Group_152" data-name="Group 152" transform="translate(0 0.005)">
              <path id="Path_43" data-name="Path 43" d="M28.55,28.39,41.289,45.853h4.724Z" transform="translate(-28.55 -28.39)" fill="#6c3695"/>
              <path id="Path_44" data-name="Path 44" d="M28.55,80.083,46.013,67.339V62.62Z" transform="translate(-28.55 -45.157)" fill="#6c3695"/>
              <path id="Path_45" data-name="Path 45" d="M80.243,28.39,62.78,41.129v4.724Z" transform="translate(-45.317 -28.39)" fill="#6c3695"/>
              <path id="Path_46" data-name="Path 46" d="M80.243,80.083,67.5,62.62H62.78Z" transform="translate(-45.317 -45.157)" fill="#6c3695"/>
            </g>
          </g>
          <g id="Group_154" data-name="Group 154">
            <path id="Path_47" data-name="Path 47" d="M38.382,37.13,21.5,32.941l16.882-4.188L42.56,2.03l4.178,26.723L63.62,32.941,46.738,37.13,42.56,63.852Z" transform="translate(-20.837 -0.994)" fill="#fff"/>
            <path id="Path_48" data-name="Path 48" d="M41.923,2.066l4,25.605.031.209.2.051,16.157,4.01-16.157,4.01-.2.051-.031.209-4,25.605-4-25.605L37.888,36l-.2-.051-16.157-4.01,16.157-4.01.2-.051.031-.209,4-25.605m0-2.066L37.6,27.626,20.2,31.947l17.4,4.321,4.321,27.626,4.321-27.626,17.4-4.321-17.4-4.321L41.923,0Z" transform="translate(-20.2)" fill="#6c3695"/>
          </g>
          <path id="Path_49" data-name="Path 49" d="M62.781,62.587l-.031.031H62.71V62.51Z" transform="translate(-41.023 -30.619)" fill="#6c3695"/>
          <path id="Path_50" data-name="Path 50" d="M62.781,62.58l-.041.041V62.58Z" transform="translate(-41.037 -30.654)" fill="#6c3695"/>
          <path id="Path_51" data-name="Path 51" d="M62.781,62.621H62.72l.031-.031Z" transform="translate(-41.028 -30.658)" fill="#6c3695"/>
          <g id="Group_155" data-name="Group 155" transform="translate(0.097)">
            <path id="Path_52" data-name="Path 52" d="M58.451,0V31.881L54.14,27.564l.372-2.382Z" transform="translate(-36.922)" fill="#6c3695"/>
            <path id="Path_53" data-name="Path 53" d="M41.919,62.69v.041l-4.311,4.311-.01-.071-2.357-.495L20.39,62.69Z" transform="translate(-20.39 -30.707)" fill="#6c3695"/>
            <path id="Path_54" data-name="Path 54" d="M84.382,58.486l-.189.036H62.766l-.036-.031,4.316-4.311,2.291.48Z" transform="translate(-41.129 -26.539)" fill="#6c3695"/>
            <path id="Path_55" data-name="Path 55" d="M66.962,66.96l-.051.01-.383,2.444L62.59,94.6V62.731l.041-.041H62.7Z" transform="translate(-41.061 -30.707)" fill="#6c3695"/>
          </g>
          <g id="Group_156" data-name="Group 156" transform="translate(18.846 29.069)">
            <path id="Path_56" data-name="Path 56" d="M60.174,62.728a2.714,2.714,0,1,1,2.714-2.714A2.719,2.719,0,0,1,60.174,62.728Z" transform="translate(-57.297 -57.137)" fill="#fff"/>
            <path id="Path_57" data-name="Path 57" d="M60.017,57.3a2.556,2.556,0,1,1-2.556,2.556A2.554,2.554,0,0,1,60.017,57.3m0-.321a2.877,2.877,0,1,0,2.877,2.877,2.881,2.881,0,0,0-2.877-2.877Z" transform="translate(-57.14 -56.98)" fill="#6c3695"/>
          </g>
          <circle id="Ellipse_18" data-name="Ellipse 18" cx="1.275" cy="1.275" r="1.275" transform="translate(20.448 30.671)" fill="#6c3695"/>
        </g>
        <g id="Group_158" data-name="Group 158" transform="translate(0 0.888)">
          <path id="Path_58" data-name="Path 58" d="M72.8,1.74A23.011,23.011,0,0,0,88.664,5.214L90.031,5l.9,1.826a6.877,6.877,0,0,0,4.015,3.6,17.206,17.206,0,0,0,4.2.219c1.832,18.611-3.372,39.467-16.922,50.645a25.178,25.178,0,0,1-9.54,4.745h0c16.637-8.719,23.993-31.753,23.427-51.956l.3.357c-3.377-.189-6.53-2.745-7.877-6.357l.275.2C82.98,8.653,77.282,6.046,72.8,1.74h0Z" transform="translate(-35.598 -1.74)" fill="#6c3695"/>
          <path id="Path_59" data-name="Path 59" d="M26.695,1.74A23.011,23.011,0,0,1,10.828,5.214L9.461,5l-.9,1.826a6.878,6.878,0,0,1-4.015,3.6,17.206,17.206,0,0,1-4.2.219C-1.482,29.253,3.722,50.109,17.272,61.287a25.178,25.178,0,0,0,9.54,4.745h0C10.175,57.318,2.824,34.284,3.39,14.086l-.3.357c3.377-.189,6.53-2.745,7.877-6.357l-.275.2C16.517,8.663,22.215,6.056,26.7,1.75h0Z" transform="translate(0.005 -1.74)" fill="#6c3695"/>
        </g>
      </g>
      <g id="Group_162" data-name="Group 162" transform="translate(71.891 9.576)">
        <g id="Group_160" data-name="Group 160" transform="translate(1.689)">
          <path id="Path_60" data-name="Path 60" d="M164.137,46.1H144.22V44.9a7.5,7.5,0,0,0,2.388-.281,1.581,1.581,0,0,0,1.025-1.082,8.889,8.889,0,0,0,.24-2.367V24.817a9.345,9.345,0,0,0-.24-2.408,1.682,1.682,0,0,0-1.025-1.163,6.667,6.667,0,0,0-2.388-.321v-1.2H155.5v1.2a6.939,6.939,0,0,0-2.469.342,1.923,1.923,0,0,0-1.163,1.184,7.543,7.543,0,0,0-.3,2.408V42.285c0,.883.214,1.459.643,1.724a4.937,4.937,0,0,0,2.408.4h1.847a14.426,14.426,0,0,0,3.255-.3,4.155,4.155,0,0,0,1.99-1.025,5.758,5.758,0,0,0,1.245-1.908q.505-1.186,1.107-2.913h1.286l-1.2,7.831Z" transform="translate(-144.22 -19.235)" fill="#231f20"/>
          <path id="Path_61" data-name="Path 61" d="M211.238,46.1H189.79v-1.2a10.208,10.208,0,0,0,2.469-.219,1.577,1.577,0,0,0,1.122-.985,6.8,6.8,0,0,0,.3-2.331V24.613a7.023,7.023,0,0,0-.3-2.331,1.75,1.75,0,0,0-1.122-1.087,8.106,8.106,0,0,0-2.469-.281v-1.2h21.085l.24,6.586h-1.286a8.811,8.811,0,0,0-.862-3.03,2.985,2.985,0,0,0-1.888-1.388,15.183,15.183,0,0,0-3.8-.362h-5.9v10.2h4.7a9.391,9.391,0,0,0,2.811-.321,2.059,2.059,0,0,0,1.326-1.2,6.81,6.81,0,0,0,.362-2.49h1.286V37.02H206.58a6.3,6.3,0,0,0-.362-2.449,1.854,1.854,0,0,0-1.326-1.046,12.535,12.535,0,0,0-2.811-.24h-4.7V44.331h5.178a25.47,25.47,0,0,0,3.755-.219,5.179,5.179,0,0,0,2.25-.821,4.537,4.537,0,0,0,1.367-1.724,24.527,24.527,0,0,0,1.143-2.933h1.286L211.238,46.1Z" transform="translate(-166.542 -19.23)" fill="#231f20"/>
          <path id="Path_62" data-name="Path 62" d="M251.451,46.079q-6.382,0-9.617-3.556T238.6,32.545a15.246,15.246,0,0,1,1.709-7.53,11.47,11.47,0,0,1,4.658-4.658A14.006,14.006,0,0,1,251.7,18.77a13.716,13.716,0,0,1,3.515.362,12.006,12.006,0,0,1,2.046.724,2.985,2.985,0,0,0,1.224.362.878.878,0,0,0,.786-.4c.173-.265.393-.617.663-1.046h1.163v9.2h-1.367q-.681-4.018-2.729-5.745a8.7,8.7,0,0,0-11.867,1.388q-2.349,3.115-2.347,8.454,0,6.145,2.469,9.178a8.26,8.26,0,0,0,6.765,3.03,8.116,8.116,0,0,0,3.194-.561,12.812,12.812,0,0,0,2.51-1.444V37.932a7.615,7.615,0,0,0-.24-2.189,1.5,1.5,0,0,0-1.005-1.005,7.557,7.557,0,0,0-2.291-.26V33.192H264.1v1.286a3.017,3.017,0,0,0-2.209.582,3.985,3.985,0,0,0-.52,2.469V43.35A24.356,24.356,0,0,1,257,45.34a17.634,17.634,0,0,1-5.54.745Z" transform="translate(-190.45 -18.77)" fill="#231f20"/>
          <path id="Path_63" data-name="Path 63" d="M299.233,45.9H290.8V44.7a3.874,3.874,0,0,0,1.806-.362,3.708,3.708,0,0,0,1.326-1.464,31.611,31.611,0,0,0,1.607-3.393l8.515-20.162H305.7l9.52,21.81a9.218,9.218,0,0,0,1.709,2.77,3.343,3.343,0,0,0,2.428.8v1.2H308.554V44.7a9.557,9.557,0,0,0,1.245-.082,2.335,2.335,0,0,0,1.087-.4,1.153,1.153,0,0,0,.444-1.005,4.278,4.278,0,0,0-.143-1.025,8.555,8.555,0,0,0-.541-1.464l-1.724-4.015-.281-.806-4.576-11.647h-.122l-4.7,11.647-.281.806-1.969,4.658c-.107.321-.209.638-.3.944a3.557,3.557,0,0,0-.143,1.025,1.073,1.073,0,0,0,.643,1.107,5.877,5.877,0,0,0,2.046.26v1.2Zm10.28-8.8H298.35l.6-1.607h9.958Z" transform="translate(-216.019 -19.039)" fill="#231f20"/>
          <path id="Path_64" data-name="Path 64" d="M360.471,46.079a12.8,12.8,0,0,1-6.949-1.765,11.113,11.113,0,0,1-4.24-4.862,16.533,16.533,0,0,1-1.423-6.989,15.126,15.126,0,0,1,1.689-7.428,11.5,11.5,0,0,1,4.658-4.658,14.114,14.114,0,0,1,6.826-1.607,13.07,13.07,0,0,1,3.413.362,12.694,12.694,0,0,1,2.046.724,3.126,3.126,0,0,0,1.245.362.837.837,0,0,0,.745-.423c.173-.281.383-.622.622-1.025h1.2v9.2H368.94a9.182,9.182,0,0,0-2.709-5.7,7.659,7.659,0,0,0-5.163-1.765,7.9,7.9,0,0,0-6.688,3.092q-2.349,3.092-2.347,8.474a15.059,15.059,0,0,0,1.224,6.545,8.185,8.185,0,0,0,3.393,3.734,10.1,10.1,0,0,0,4.979,1.2,10.8,10.8,0,0,0,4.857-1.025,12.563,12.563,0,0,0,3.775-2.872l.964.842a13.845,13.845,0,0,1-2.592,2.872,11.493,11.493,0,0,1-3.515,1.99,13.783,13.783,0,0,1-4.658.724Z" transform="translate(-243.969 -18.77)" fill="#231f20"/>
          <path id="Path_65" data-name="Path 65" d="M415.59,46.1H403.7v-1.2a9.834,9.834,0,0,0,2.632-.26,1.59,1.59,0,0,0,1.122-1.143,10.033,10.033,0,0,0,.26-2.653V35.015l-5.1-8.234c-.832-1.367-1.541-2.434-2.127-3.214a10.775,10.775,0,0,0-1.587-1.745,3.579,3.579,0,0,0-1.306-.745,5.133,5.133,0,0,0-1.326-.163v-1.2h10.805v1.2a6.257,6.257,0,0,0-2.189.24.74.74,0,0,0-.5.684,3.51,3.51,0,0,0,.684,1.847l3.612,5.785,1.765,3.132h.24l5.3-9.035a3.81,3.81,0,0,0,.342-.724,2.557,2.557,0,0,0,.143-.842.864.864,0,0,0-.52-.821,5.282,5.282,0,0,0-2.046-.26v-1.2h8.755v1.2a6.888,6.888,0,0,0-1.99.4,4.313,4.313,0,0,0-1.566,1.122,16.063,16.063,0,0,0-1.745,2.449l-5.944,9.918v6.025a7.559,7.559,0,0,0,.342,2.632A1.86,1.86,0,0,0,413,44.611a9.129,9.129,0,0,0,2.592.281v1.2Z" transform="translate(-267.682 -19.23)" fill="#231f20"/>
        </g>
        <g id="Group_161" data-name="Group 161" transform="translate(0.525 36.431)">
          <path id="Path_66" data-name="Path 66" d="M146.419,100.4h-4.474v-.464a3.34,3.34,0,0,0,1.025-.117.629.629,0,0,0,.418-.449,4.06,4.06,0,0,0,.092-1V92.246a4.646,4.646,0,0,0-.077-.954.662.662,0,0,0-.4-.49,2.935,2.935,0,0,0-1.066-.138V90.2h4.474v.464a2.909,2.909,0,0,0-1.056.138.633.633,0,0,0-.4.49,5.152,5.152,0,0,0-.071.954v6.122a4.031,4.031,0,0,0,.092,1,.63.63,0,0,0,.418.449,3.251,3.251,0,0,0,1.01.117v.464Z" transform="translate(-141.94 -90.19)" fill="#231f20"/>
          <path id="Path_67" data-name="Path 67" d="M156.321,102.96H152.76v-.434a2.042,2.042,0,0,0,.755-.1.464.464,0,0,0,.281-.352,3.39,3.39,0,0,0,.056-.684V97.022a.663.663,0,0,0-.173-.551.787.787,0,0,0-.48-.133,2.993,2.993,0,0,0-.418.031V95.92l1.974-.449h.357L155.1,96.9l.046.326v4.168a2.974,2.974,0,0,0,.061.684.49.49,0,0,0,.311.352,2.328,2.328,0,0,0,.806.1v.434Zm4.571,0H157.3v-.434a2.3,2.3,0,0,0,.8-.1.462.462,0,0,0,.3-.352,3.39,3.39,0,0,0,.056-.684V98.578a3.6,3.6,0,0,0-.209-1.4,1.117,1.117,0,0,0-.536-.612,1.665,1.665,0,0,0-.684-.148,1.785,1.785,0,0,0-.806.179,2.826,2.826,0,0,0-.643.429c-.194.168-.372.321-.536.469l-.107-.76h.235a11.253,11.253,0,0,1,1.2-.934,2.3,2.3,0,0,1,1.3-.372,1.811,1.811,0,0,1,1.571.714,3.488,3.488,0,0,1,.515,2.051v3.2a2.637,2.637,0,0,0,.071.684.519.519,0,0,0,.316.352,2.149,2.149,0,0,0,.76.1v.434Z" transform="translate(-147.24 -92.752)" fill="#231f20"/>
          <path id="Path_68" data-name="Path 68" d="M170.576,103.088l-.046-2.673h.4a3.287,3.287,0,0,0,.73,1.673,1.821,1.821,0,0,0,1.337.474,1.776,1.776,0,0,0,.964-.24.86.86,0,0,0,.372-.786,1.338,1.338,0,0,0-.133-.622,1.473,1.473,0,0,0-.505-.505,8.6,8.6,0,0,0-1.1-.612,8.113,8.113,0,0,1-1.168-.694,2.258,2.258,0,0,1-.668-.74,2.073,2.073,0,0,1-.219-.98,1.675,1.675,0,0,1,.694-1.459,2.813,2.813,0,0,1,1.689-.495,2.987,2.987,0,0,1,.964.133c.25.087.469.179.668.27h.015l.265-.327h.311l.046,2.377h-.418a2.951,2.951,0,0,0-.7-1.515,1.66,1.66,0,0,0-1.168-.413,1.533,1.533,0,0,0-.893.25.872.872,0,0,0-.367.775,1.033,1.033,0,0,0,.418.806,7.507,7.507,0,0,0,1.4.857,9.857,9.857,0,0,1,1.2.724,2.682,2.682,0,0,1,.73.76,1.894,1.894,0,0,1,.25.985,1.8,1.8,0,0,1-.357,1.173,2.012,2.012,0,0,1-.954.643,4.082,4.082,0,0,1-1.3.2,3.272,3.272,0,0,1-1.066-.138c-.265-.092-.5-.179-.709-.265h-.031l-.327.357h-.327Z" transform="translate(-155.944 -92.752)" fill="#231f20"/>
          <path id="Path_69" data-name="Path 69" d="M185.172,103.221a1.865,1.865,0,0,1-1.5-.628,3.471,3.471,0,0,1-.536-2.214V97.227a1.62,1.62,0,0,0-.087-.612.434.434,0,0,0-.316-.25,3.026,3.026,0,0,0-.653-.056v-.434l2-.235h.342v4.541a3.435,3.435,0,0,0,.179,1.235,1.2,1.2,0,0,0,.5.628,1.433,1.433,0,0,0,.724.189,1.889,1.889,0,0,0,1.02-.265,7.114,7.114,0,0,0,.893-.668V97.211a1.275,1.275,0,0,0-.107-.607.533.533,0,0,0-.383-.24,4.213,4.213,0,0,0-.77-.056v-.434l2.178-.235h.372v5.7c0,.454.061.74.189.857a1.138,1.138,0,0,0,.745.168h.153v.418l-1.974.357H187.8v-1.2h-.077a6.868,6.868,0,0,1-.8.694,3.112,3.112,0,0,1-.821.434,2.849,2.849,0,0,1-.923.148Z" transform="translate(-161.602 -92.854)" fill="#231f20"/>
          <path id="Path_70" data-name="Path 70" d="M203.508,102.911H199.62v-.449a2.473,2.473,0,0,0,.755-.087.464.464,0,0,0,.311-.311,2.372,2.372,0,0,0,.071-.658V97.131a2.108,2.108,0,0,0-.071-.628c-.046-.138-.209-.209-.49-.209a3.9,3.9,0,0,0-.48.031v-.434l1.928-.464h.372v1.6h.046c.27-.383.51-.7.714-.949a2.755,2.755,0,0,1,.612-.561,1.293,1.293,0,0,1,.679-.189.9.9,0,0,1,.679.235.883.883,0,0,1,.224.638.856.856,0,0,1-.209.638.67.67,0,0,1-.474.2.784.784,0,0,1-.444-.133,2.284,2.284,0,0,1-.332-.265.4.4,0,0,0-.235-.133c-.179,0-.378.133-.607.4a6.737,6.737,0,0,0-.622.872v3.546a1.7,1.7,0,0,0,.122.73.616.616,0,0,0,.444.327,4.04,4.04,0,0,0,.893.077v.449Z" transform="translate(-170.193 -92.703)" fill="#231f20"/>
          <path id="Path_71" data-name="Path 71" d="M212.872,103.063a1.814,1.814,0,0,1-1.377-.495,1.73,1.73,0,0,1-.474-1.245,1.87,1.87,0,0,1,.286-1.051,2.522,2.522,0,0,1,.76-.724,5.291,5.291,0,0,1,1.025-.495c.367-.133.73-.25,1.082-.342s.663-.179.934-.265v-.684a2.287,2.287,0,0,0-.352-1.439,1.276,1.276,0,0,0-1.051-.429c-.469,0-.73.092-.857.281a1.879,1.879,0,0,0-.189.98.729.729,0,0,1-.179.536.685.685,0,0,1-.505.179.7.7,0,0,1-.444-.179.706.706,0,0,1-.209-.566,1.248,1.248,0,0,1,.337-.826,2.461,2.461,0,0,1,.949-.638,3.9,3.9,0,0,1,1.454-.25,2.322,2.322,0,0,1,1.8.592,2.642,2.642,0,0,1,.531,1.806v3.53a1.161,1.161,0,0,0,.107.622.43.43,0,0,0,.357.138.776.776,0,0,0,.4-.107,1.7,1.7,0,0,0,.337-.281l.235.25a3.5,3.5,0,0,1-.74.816,1.54,1.54,0,0,1-.939.255.728.728,0,0,1-.709-.311,2.68,2.68,0,0,1-.24-.888l-.092-.189V98.956a11.8,11.8,0,0,0-1.321.4,2.882,2.882,0,0,0-1.01.607,1.3,1.3,0,0,0-.388.98,1.276,1.276,0,0,0,.311.918,1.034,1.034,0,0,0,.806.342,2,2,0,0,0,.847-.2,3.4,3.4,0,0,0,.862-.576l.122.561h-.189c-.24.209-.469.393-.694.561a2.5,2.5,0,0,1-1.592.515Z" transform="translate(-175.778 -92.742)" fill="#231f20"/>
          <path id="Path_72" data-name="Path 72" d="M229.021,102.96H225.46v-.434a2.042,2.042,0,0,0,.755-.1.464.464,0,0,0,.281-.352,3.387,3.387,0,0,0,.056-.684V97.022a.663.663,0,0,0-.173-.551.787.787,0,0,0-.48-.133,2.993,2.993,0,0,0-.418.031V95.92l1.974-.449h.357L227.8,96.9l.046.326v4.168a2.973,2.973,0,0,0,.061.684.49.49,0,0,0,.311.352,2.328,2.328,0,0,0,.806.1v.434Zm4.571,0H230v-.434a2.3,2.3,0,0,0,.8-.1.462.462,0,0,0,.3-.352,3.39,3.39,0,0,0,.056-.684V98.578a3.6,3.6,0,0,0-.209-1.4,1.117,1.117,0,0,0-.536-.612,1.665,1.665,0,0,0-.684-.148,1.785,1.785,0,0,0-.806.179,2.825,2.825,0,0,0-.643.429c-.194.168-.372.321-.536.469l-.107-.76h.235a11.253,11.253,0,0,1,1.2-.934,2.3,2.3,0,0,1,1.3-.372,1.811,1.811,0,0,1,1.571.714,3.488,3.488,0,0,1,.515,2.051v3.2a2.637,2.637,0,0,0,.071.684.519.519,0,0,0,.316.352,2.149,2.149,0,0,0,.76.1v.434Z" transform="translate(-182.851 -92.752)" fill="#231f20"/>
          <path id="Path_73" data-name="Path 73" d="M248.876,100.669l.3.219a6.861,6.861,0,0,1-.679,1.133,2.74,2.74,0,0,1-.939.806,2.953,2.953,0,0,1-1.4.3,2.919,2.919,0,0,1-1.663-.464,3.022,3.022,0,0,1-1.071-1.3,4.59,4.59,0,0,1-.372-1.9,5.056,5.056,0,0,1,.413-2.127,3.158,3.158,0,0,1,1.2-1.4,3.488,3.488,0,0,1,1.9-.495,2.815,2.815,0,0,1,1.735.48,1.431,1.431,0,0,1,.628,1.168.748.748,0,0,1-.163.52.632.632,0,0,1-.49.179.707.707,0,0,1-.52-.179,1.306,1.306,0,0,1-.286-.444c-.071-.173-.148-.352-.225-.531a1.287,1.287,0,0,0-.326-.444.932.932,0,0,0-.612-.179,1.766,1.766,0,0,0-1.485.694,3.268,3.268,0,0,0-.536,2.03,4.251,4.251,0,0,0,.582,2.326,1.962,1.962,0,0,0,1.78.908,2.193,2.193,0,0,0,1.235-.311,4.558,4.558,0,0,0,1-.98Z" transform="translate(-191.467 -92.757)" fill="#231f20"/>
          <path id="Path_74" data-name="Path 74" d="M259.971,103.113a3.274,3.274,0,0,1-1.689-.444,3.055,3.055,0,0,1-1.189-1.306,5.389,5.389,0,0,1,.01-4.26,3.01,3.01,0,0,1,1.189-1.265,3.285,3.285,0,0,1,1.648-.418,2.585,2.585,0,0,1,2.051.888,3.952,3.952,0,0,1,.842,2.52h-5.051l-.015-.576h3.607a3.284,3.284,0,0,0-.2-1.082,1.986,1.986,0,0,0-.546-.816,1.344,1.344,0,0,0-.918-.311,1.492,1.492,0,0,0-1.352.709,3.711,3.711,0,0,0-.449,2,4.1,4.1,0,0,0,.342,1.786,2.509,2.509,0,0,0,.9,1.066,2.2,2.2,0,0,0,1.2.352,2.678,2.678,0,0,0,1.036-.168,2.173,2.173,0,0,0,.678-.444,5.987,5.987,0,0,0,.531-.6l.3.219a6.3,6.3,0,0,1-.464.832,3.774,3.774,0,0,1-.6.694,2.463,2.463,0,0,1-.786.464,3.018,3.018,0,0,1-1.056.168Z" transform="translate(-198.133 -92.747)" fill="#231f20"/>
          <path id="Path_75" data-name="Path 75" d="M281.433,100.388H277.78v-.464a2.925,2.925,0,0,0,.949-.117.682.682,0,0,0,.418-.505,4.809,4.809,0,0,0,.107-1.184V92.073a2.816,2.816,0,0,0-.107-.893.661.661,0,0,0-.413-.418,2.773,2.773,0,0,0-.923-.117V90.18h3.173L284.264,98h.061l3.265-7.821h2.954v.464a2.424,2.424,0,0,0-.842.117.67.67,0,0,0-.4.418,2.776,2.776,0,0,0-.107.877v6.484a2.713,2.713,0,0,0,.107.862.65.65,0,0,0,.4.413,2.634,2.634,0,0,0,.857.107v.464h-4.132v-.464a2.847,2.847,0,0,0,.9-.107.6.6,0,0,0,.388-.413,3.136,3.136,0,0,0,.092-.862v-6.7h-.061l-3.622,8.55h-.372l-3.668-8.535h-.061v6.265a4.816,4.816,0,0,0,.107,1.184.687.687,0,0,0,.413.505,2.651,2.651,0,0,0,.893.117v.464Z" transform="translate(-208.479 -90.18)" fill="#231f20"/>
          <path id="Path_76" data-name="Path 76" d="M307.2,103.063a1.814,1.814,0,0,1-1.377-.495,1.73,1.73,0,0,1-.474-1.245,1.87,1.87,0,0,1,.286-1.051,2.523,2.523,0,0,1,.76-.724,5.29,5.29,0,0,1,1.025-.495c.367-.133.73-.25,1.082-.342s.663-.179.934-.265v-.684a2.287,2.287,0,0,0-.352-1.439,1.276,1.276,0,0,0-1.051-.429c-.469,0-.73.092-.857.281a1.879,1.879,0,0,0-.189.98.729.729,0,0,1-.179.536.685.685,0,0,1-.505.179.7.7,0,0,1-.444-.179.706.706,0,0,1-.209-.566,1.249,1.249,0,0,1,.337-.826,2.462,2.462,0,0,1,.949-.638,3.9,3.9,0,0,1,1.454-.25,2.322,2.322,0,0,1,1.8.592,2.642,2.642,0,0,1,.531,1.806v3.53a1.161,1.161,0,0,0,.107.622.43.43,0,0,0,.357.138.776.776,0,0,0,.4-.107,1.7,1.7,0,0,0,.337-.281l.235.25a3.505,3.505,0,0,1-.74.816,1.54,1.54,0,0,1-.939.255.728.728,0,0,1-.709-.311,2.68,2.68,0,0,1-.24-.888l-.092-.189V98.956a11.807,11.807,0,0,0-1.321.4,2.884,2.884,0,0,0-1.01.607,1.3,1.3,0,0,0-.388.98,1.276,1.276,0,0,0,.311.918,1.034,1.034,0,0,0,.806.342,2,2,0,0,0,.847-.2,3.4,3.4,0,0,0,.862-.576l.122.561h-.189c-.24.209-.469.393-.694.561a2.5,2.5,0,0,1-1.592.515Z" transform="translate(-221.983 -92.742)" fill="#231f20"/>
          <path id="Path_77" data-name="Path 77" d="M323.351,102.96H319.79v-.434a2.042,2.042,0,0,0,.755-.1.464.464,0,0,0,.281-.352,3.39,3.39,0,0,0,.056-.684V97.022a.664.664,0,0,0-.173-.551.788.788,0,0,0-.48-.133,2.994,2.994,0,0,0-.418.031V95.92l1.974-.449h.357l-.015,1.428.046.326v4.168a2.973,2.973,0,0,0,.061.684.49.49,0,0,0,.311.352,2.328,2.328,0,0,0,.806.1v.434Zm4.571,0h-3.592v-.434a2.3,2.3,0,0,0,.8-.1.462.462,0,0,0,.3-.352,3.385,3.385,0,0,0,.056-.684V98.578a3.6,3.6,0,0,0-.209-1.4,1.117,1.117,0,0,0-.536-.612,1.665,1.665,0,0,0-.684-.148,1.785,1.785,0,0,0-.806.179,2.825,2.825,0,0,0-.643.429c-.194.168-.372.321-.536.469l-.107-.76h.235a11.259,11.259,0,0,1,1.2-.934,2.3,2.3,0,0,1,1.3-.372,1.811,1.811,0,0,1,1.571.714,3.488,3.488,0,0,1,.515,2.051v3.2a2.638,2.638,0,0,0,.071.684.52.52,0,0,0,.316.352,2.15,2.15,0,0,0,.76.1v.434Z" transform="translate(-229.056 -92.752)" fill="#231f20"/>
          <path id="Path_78" data-name="Path 78" d="M339.372,103.063a1.814,1.814,0,0,1-1.377-.495,1.73,1.73,0,0,1-.474-1.245,1.87,1.87,0,0,1,.286-1.051,2.523,2.523,0,0,1,.76-.724,5.291,5.291,0,0,1,1.025-.495c.367-.133.73-.25,1.082-.342s.663-.179.934-.265v-.684a2.287,2.287,0,0,0-.352-1.439,1.276,1.276,0,0,0-1.051-.429c-.469,0-.73.092-.857.281a1.88,1.88,0,0,0-.189.98.729.729,0,0,1-.179.536.684.684,0,0,1-.505.179.7.7,0,0,1-.444-.179.706.706,0,0,1-.209-.566,1.249,1.249,0,0,1,.337-.826,2.461,2.461,0,0,1,.949-.638,3.9,3.9,0,0,1,1.454-.25,2.322,2.322,0,0,1,1.8.592,2.642,2.642,0,0,1,.531,1.806v3.53a1.161,1.161,0,0,0,.107.622.43.43,0,0,0,.357.138.776.776,0,0,0,.4-.107,1.7,1.7,0,0,0,.337-.281l.235.25a3.5,3.5,0,0,1-.74.816,1.54,1.54,0,0,1-.939.255.728.728,0,0,1-.709-.311,2.681,2.681,0,0,1-.24-.888l-.092-.189V98.956a11.8,11.8,0,0,0-1.321.4,2.883,2.883,0,0,0-1.01.607,1.3,1.3,0,0,0-.388.98,1.276,1.276,0,0,0,.311.918,1.034,1.034,0,0,0,.806.342,2,2,0,0,0,.847-.2,3.4,3.4,0,0,0,.862-.576l.122.561h-.189c-.24.209-.469.393-.694.561a2.5,2.5,0,0,1-1.592.515Z" transform="translate(-237.741 -92.742)" fill="#231f20"/>
          <path id="Path_79" data-name="Path 79" d="M354.273,106.608a4.09,4.09,0,0,1-1.592-.25,1.708,1.708,0,0,1-.816-.643,1.555,1.555,0,0,1-.235-.816,1.4,1.4,0,0,1,.316-.816,9.859,9.859,0,0,1,.939-1.036v-.168l.464.092a4.362,4.362,0,0,0-.4.816,1.857,1.857,0,0,0-.107.582,1.11,1.11,0,0,0,.576,1.01,3.506,3.506,0,0,0,1.755.342,3.9,3.9,0,0,0,1.485-.235,1.854,1.854,0,0,0,.821-.576,1.1,1.1,0,0,0,.255-.668.789.789,0,0,0-.27-.643,1.646,1.646,0,0,0-.694-.316,5.4,5.4,0,0,0-.888-.117c-.311-.015-.6-.026-.857-.026q-.7-.015-1.056-.015c-.24,0-.408,0-.515-.005s-.2-.01-.281-.01l-.153-.077a1.6,1.6,0,0,1-.464-.25,1.573,1.573,0,0,1-.388-.413.916.916,0,0,1-.153-.505,1.228,1.228,0,0,1,.163-.582,2.641,2.641,0,0,1,.459-.607,6.012,6.012,0,0,1,.653-.582v-.138l.4.3a1.516,1.516,0,0,0-.189.281,3.293,3.293,0,0,0-.189.429,1.2,1.2,0,0,0-.077.383.461.461,0,0,0,.163.367,1.22,1.22,0,0,0,.561.194,7.721,7.721,0,0,0,1.112.061,15.343,15.343,0,0,1,1.765.092,2.232,2.232,0,0,1,1.235.485,1.6,1.6,0,0,1,.449,1.275,2.19,2.19,0,0,1-.383,1.311,2.828,2.828,0,0,1-1.01.862,5.03,5.03,0,0,1-1.383.474,7.872,7.872,0,0,1-1.485.148Zm.714-6.076a3.539,3.539,0,0,1-.755-.077,5.769,5.769,0,0,1-.678-.189l-.168-.153a2.874,2.874,0,0,1-.694-.51,1.991,1.991,0,0,1-.444-.709,2.683,2.683,0,0,1-.153-.939,2.47,2.47,0,0,1,.357-1.347,2.378,2.378,0,0,1,.995-.877,3.333,3.333,0,0,1,1.459-.311,4.375,4.375,0,0,1,.878.087,3.414,3.414,0,0,1,.77.255,2.724,2.724,0,0,1,.622.4v.4a4.68,4.68,0,0,1,.367.622,2.468,2.468,0,0,1-.158,2.229,2.314,2.314,0,0,1-.964.826,3.322,3.322,0,0,1-1.439.286Zm.015-.546a1.263,1.263,0,0,0,.969-.4,2.253,2.253,0,0,0,.383-1.51,2.606,2.606,0,0,0-.4-1.525,1.325,1.325,0,0,0-1.148-.576,1.162,1.162,0,0,0-.969.464,2.32,2.32,0,0,0-.367,1.444,2.665,2.665,0,0,0,.388,1.546,1.317,1.317,0,0,0,1.148.551ZM358.64,95.7v.842l-1.678-.046-.546-.668,2.224-.122Z" transform="translate(-244.653 -92.747)" fill="#231f20"/>
          <path id="Path_80" data-name="Path 80" d="M370.241,103.113a3.274,3.274,0,0,1-1.689-.444,3.056,3.056,0,0,1-1.189-1.306,5.39,5.39,0,0,1,.01-4.26,3.011,3.011,0,0,1,1.189-1.265,3.285,3.285,0,0,1,1.648-.418,2.585,2.585,0,0,1,2.051.888,3.952,3.952,0,0,1,.842,2.52h-5.051l-.015-.576h3.607a3.283,3.283,0,0,0-.2-1.082,1.986,1.986,0,0,0-.546-.816,1.345,1.345,0,0,0-.918-.311,1.492,1.492,0,0,0-1.352.709,3.711,3.711,0,0,0-.449,2,4.1,4.1,0,0,0,.342,1.786,2.509,2.509,0,0,0,.9,1.066,2.2,2.2,0,0,0,1.2.352,2.678,2.678,0,0,0,1.036-.168,2.173,2.173,0,0,0,.678-.444,5.979,5.979,0,0,0,.531-.6l.3.219a6.287,6.287,0,0,1-.464.832,3.775,3.775,0,0,1-.6.694,2.464,2.464,0,0,1-.786.464,3.018,3.018,0,0,1-1.056.168Z" transform="translate(-252.147 -92.747)" fill="#231f20"/>
          <path id="Path_81" data-name="Path 81" d="M384.546,102.955H381v-.449a2.25,2.25,0,0,0,.724-.087.465.465,0,0,0,.3-.327,2.719,2.719,0,0,0,.071-.709V97.032a.564.564,0,0,0-.653-.7,3.5,3.5,0,0,0-.418.031v-.449l1.944-.449h.372v1.428l.046.342v4.214a1.805,1.805,0,0,0,.092.658.535.535,0,0,0,.342.311,2.377,2.377,0,0,0,.73.087v.449Zm4.51,0h-3.683v-.449a2.185,2.185,0,0,0,.806-.107.552.552,0,0,0,.316-.4,3.9,3.9,0,0,0,.071-.842V98.078a1.86,1.86,0,0,0-.352-1.332,1.233,1.233,0,0,0-.893-.332,1.793,1.793,0,0,0-.816.189,3.793,3.793,0,0,0-.694.434,6.618,6.618,0,0,0-.531.464l-.122-.775h.235a11.039,11.039,0,0,1,1.229-.923A2.49,2.49,0,0,1,386,95.42a1.574,1.574,0,0,1,1.127.4,2.527,2.527,0,0,1,.643,1.01.368.368,0,0,1,.046.1c.01.036.02.077.031.117v4.1a3.75,3.75,0,0,0,.071.821.569.569,0,0,0,.316.413,2.042,2.042,0,0,0,.806.117v.449Zm4.336,0h-3.515v-.449a1.558,1.558,0,0,0,.76-.138.611.611,0,0,0,.286-.444,4.541,4.541,0,0,0,.056-.77V98.17a2.635,2.635,0,0,0-.179-1.087,1.046,1.046,0,0,0-.48-.52,1.557,1.557,0,0,0-.678-.148,1.688,1.688,0,0,0-1.01.367c-.332.245-.633.48-.9.709l-.168-.775h.235a5.554,5.554,0,0,1,1.245-.964,2.537,2.537,0,0,1,1.23-.327,1.913,1.913,0,0,1,1.459.576,2.874,2.874,0,0,1,.546,1.99v3.173a4.648,4.648,0,0,0,.056.786.567.567,0,0,0,.3.434,1.7,1.7,0,0,0,.77.133v.449Z" transform="translate(-259.039 -92.747)" fill="#231f20"/>
          <path id="Path_82" data-name="Path 82" d="M410.331,103.113a3.274,3.274,0,0,1-1.689-.444,3.056,3.056,0,0,1-1.189-1.306,5.389,5.389,0,0,1,.01-4.26,3.01,3.01,0,0,1,1.189-1.265,3.285,3.285,0,0,1,1.648-.418,2.585,2.585,0,0,1,2.051.888,3.952,3.952,0,0,1,.842,2.52h-5.051l-.015-.576h3.607a3.283,3.283,0,0,0-.2-1.082,1.986,1.986,0,0,0-.546-.816,1.345,1.345,0,0,0-.918-.311,1.492,1.492,0,0,0-1.352.709,3.711,3.711,0,0,0-.449,2,4.1,4.1,0,0,0,.342,1.786,2.51,2.51,0,0,0,.9,1.066,2.2,2.2,0,0,0,1.2.352,2.677,2.677,0,0,0,1.036-.168,2.173,2.173,0,0,0,.679-.444,5.978,5.978,0,0,0,.531-.6l.3.219a6.29,6.29,0,0,1-.464.832,3.775,3.775,0,0,1-.6.694,2.464,2.464,0,0,1-.786.464,3.018,3.018,0,0,1-1.056.168Z" transform="translate(-271.784 -92.747)" fill="#231f20"/>
          <path id="Path_83" data-name="Path 83" d="M424.661,102.96H421.1v-.434a2.041,2.041,0,0,0,.755-.1.464.464,0,0,0,.281-.352,3.392,3.392,0,0,0,.056-.684V97.022a.664.664,0,0,0-.173-.551.788.788,0,0,0-.48-.133,2.993,2.993,0,0,0-.418.031V95.92l1.974-.449h.357l-.015,1.428.046.326v4.168a2.972,2.972,0,0,0,.061.684.49.49,0,0,0,.311.352,2.328,2.328,0,0,0,.806.1v.434Zm4.571,0h-3.592v-.434a2.3,2.3,0,0,0,.8-.1.462.462,0,0,0,.3-.352,3.389,3.389,0,0,0,.056-.684V98.578a3.6,3.6,0,0,0-.209-1.4,1.117,1.117,0,0,0-.536-.612,1.665,1.665,0,0,0-.684-.148,1.785,1.785,0,0,0-.806.179,2.824,2.824,0,0,0-.643.429c-.194.168-.372.321-.536.469l-.107-.76h.235a11.253,11.253,0,0,1,1.2-.934,2.3,2.3,0,0,1,1.3-.372,1.811,1.811,0,0,1,1.571.714,3.488,3.488,0,0,1,.515,2.051v3.2a2.636,2.636,0,0,0,.071.684.519.519,0,0,0,.316.352,2.15,2.15,0,0,0,.76.1v.434Z" transform="translate(-278.681 -92.752)" fill="#231f20"/>
          <path id="Path_84" data-name="Path 84" d="M442.784,99.691l.3.25c-.2.281-.383.515-.551.709a1.908,1.908,0,0,1-.566.444,1.831,1.831,0,0,1-.806.153,1.337,1.337,0,0,1-1.133-.459,2.456,2.456,0,0,1-.357-1.5V94.467h-.857V94.11a3.169,3.169,0,0,0,.939-.923,9.589,9.589,0,0,0,.816-1.576h.388v2.209h1.755v.653h-1.755v4.382A3.1,3.1,0,0,0,441.1,100a.583.583,0,0,0,.6.327.962.962,0,0,0,.582-.153,4.059,4.059,0,0,0,.505-.48Z" transform="translate(-287.356 -90.88)" fill="#231f20"/>
        </g>
        <rect id="Rectangle_88" data-name="Rectangle 88" width="158.122" height="2.74" transform="translate(0 30.692)" fill="#6c3695"/>
      </g>
    </g>
  </g>
</svg>
