<svg xmlns="http://www.w3.org/2000/svg" xmlns:xlink="http://www.w3.org/1999/xlink" width="677.28" height="248.96" viewBox="0 0 677.28 248.96">
  <defs>
    <filter id="Path_89" x="267.44" y="49.28" width="409.84" height="199.68" filterUnits="userSpaceOnUse">
      <feOffset input="SourceAlpha"/>
      <feGaussianBlur stdDeviation="20" result="blur"/>
      <feFlood flood-color="#fff"/>
      <feComposite operator="in" in2="blur"/>
      <feComposite in="SourceGraphic"/>
    </filter>
  </defs>
  <g id="kv-title" transform="translate(-354.84 -294.24)">
    <g transform="matrix(1, 0, 0, 1, 354.84, 294.24)" filter="url(#Path_89)">
      <path id="Path_89-2" data-name="Path 89" d="M5.28,0V-60.48H18.56V0ZM64.4-24.48a7.866,7.866,0,0,0-1.96-5.36q-1.96-2.24-5.88-2.24a9.952,9.952,0,0,0-3.52.6,9.118,9.118,0,0,0-2.8,1.64,8.11,8.11,0,0,0-1.92,2.44,7.143,7.143,0,0,0-.8,2.92Zm12.08,5.04v1.6a13.776,13.776,0,0,1-.08,1.52H47.52a6.957,6.957,0,0,0,1,3.04,8.644,8.644,0,0,0,2.16,2.36,10.462,10.462,0,0,0,2.96,1.56,10.449,10.449,0,0,0,3.4.56,11.037,11.037,0,0,0,5.28-1.16,10.445,10.445,0,0,0,3.52-3L74.96-7.2a18.452,18.452,0,0,1-7.4,6.28,24.489,24.489,0,0,1-10.68,2.2A25.484,25.484,0,0,1,48.4-.12a20.592,20.592,0,0,1-7-4.08,18.893,18.893,0,0,1-4.72-6.6,22.1,22.1,0,0,1-1.72-8.96,22.421,22.421,0,0,1,1.68-8.84,19.985,19.985,0,0,1,4.56-6.72A20.328,20.328,0,0,1,48-39.6a23.254,23.254,0,0,1,8.48-1.52,21.462,21.462,0,0,1,8.08,1.48,17.588,17.588,0,0,1,6.32,4.28A19.772,19.772,0,0,1,75-28.56,26.169,26.169,0,0,1,76.48-19.44Zm58.4,15.68A27.968,27.968,0,0,1,133.2,6.4a19.086,19.086,0,0,1-4.72,7.16,19.311,19.311,0,0,1-7.4,4.24,31.41,31.41,0,0,1-9.64,1.4,39.1,39.1,0,0,1-10.84-1.6,29.719,29.719,0,0,1-9.64-4.64L97.52,3.6a19.225,19.225,0,0,0,6.36,3.8,20.294,20.294,0,0,0,6.84,1.24q5.76,0,8.52-3.04A11.559,11.559,0,0,0,122-2.48v-2.4h-.24a12.932,12.932,0,0,1-4.96,3.84A16.81,16.81,0,0,1,109.68.4a18.93,18.93,0,0,1-8.08-1.64,17.724,17.724,0,0,1-5.96-4.44,19.431,19.431,0,0,1-3.72-6.52,24.05,24.05,0,0,1-1.28-7.88A24.407,24.407,0,0,1,91.92-28a20.261,20.261,0,0,1,3.72-6.64,18.154,18.154,0,0,1,5.96-4.6,17.99,17.99,0,0,1,8-1.72,17.625,17.625,0,0,1,7.2,1.52,12.476,12.476,0,0,1,5.52,4.72h.16v-5.12h12.4ZM122.4-20.16a10.989,10.989,0,0,0-.68-3.84,9.766,9.766,0,0,0-1.96-3.24,9.27,9.27,0,0,0-3.04-2.2,9.566,9.566,0,0,0-4-.8,9.293,9.293,0,0,0-3.96.8,8.779,8.779,0,0,0-2.92,2.16,9.488,9.488,0,0,0-1.84,3.2,11.848,11.848,0,0,0-.64,3.92,11.6,11.6,0,0,0,.64,3.84,9.943,9.943,0,0,0,1.84,3.24,9,9,0,0,0,2.92,2.24,8.916,8.916,0,0,0,3.96.84,9.44,9.44,0,0,0,4.04-.84,9.483,9.483,0,0,0,3.04-2.2,9.664,9.664,0,0,0,1.92-3.2A11.218,11.218,0,0,0,122.4-20.16Zm54.4,2.8h-1.68q-2.16,0-4.36.2a17.934,17.934,0,0,0-3.92.76A7.25,7.25,0,0,0,164-14.76a3.766,3.766,0,0,0-1.12,2.84A3.446,3.446,0,0,0,163.4-10a4.034,4.034,0,0,0,1.32,1.28,5.6,5.6,0,0,0,1.84.68,10.591,10.591,0,0,0,2,.2,8.108,8.108,0,0,0,6.12-2.2A8.228,8.228,0,0,0,176.8-16ZM152.72-34.4a22.975,22.975,0,0,1,8.2-5.04,28.1,28.1,0,0,1,9.56-1.68A25.554,25.554,0,0,1,179-39.88a12.694,12.694,0,0,1,5.64,3.84,16.377,16.377,0,0,1,3.16,6.56,38.763,38.763,0,0,1,1,9.4V0h-12V-4.24h-.24a9.872,9.872,0,0,1-4.6,3.84A16.351,16.351,0,0,1,165.28.96a20.424,20.424,0,0,1-4.96-.64,14.528,14.528,0,0,1-4.68-2.08,11.265,11.265,0,0,1-3.48-3.84,11.853,11.853,0,0,1-1.36-5.92,10.051,10.051,0,0,1,2.36-6.96,15.485,15.485,0,0,1,6.08-4.08,32.211,32.211,0,0,1,8.28-1.92,84.831,84.831,0,0,1,8.88-.48v-.64a4.885,4.885,0,0,0-2.08-4.36,8.962,8.962,0,0,0-5.12-1.4,12.746,12.746,0,0,0-5.4,1.2,17.236,17.236,0,0,0-4.44,2.88ZM234-26.96a7.963,7.963,0,0,0-3.04-2.32,9.319,9.319,0,0,0-3.92-.88,8.29,8.29,0,0,0-3.76.84,9.126,9.126,0,0,0-2.88,2.24,10.543,10.543,0,0,0-1.88,3.24,11.217,11.217,0,0,0-.68,3.92,11.848,11.848,0,0,0,.64,3.92,9.575,9.575,0,0,0,1.88,3.24,8.952,8.952,0,0,0,2.96,2.2,9.094,9.094,0,0,0,3.88.8,10.876,10.876,0,0,0,3.96-.76,7.588,7.588,0,0,0,3.16-2.2l7.28,8.88a17.106,17.106,0,0,1-6.4,3.76,25.2,25.2,0,0,1-8.32,1.36,26.257,26.257,0,0,1-8.8-1.44A20.3,20.3,0,0,1,211-4.36a19.718,19.718,0,0,1-4.72-6.68,21.89,21.89,0,0,1-1.72-8.88,21.681,21.681,0,0,1,1.72-8.8A19.718,19.718,0,0,1,211-35.4a20.8,20.8,0,0,1,7.08-4.24,25.376,25.376,0,0,1,8.72-1.48,23.034,23.034,0,0,1,4.28.4,28.616,28.616,0,0,1,4.08,1.08,18.6,18.6,0,0,1,3.6,1.68,15.131,15.131,0,0,1,2.84,2.2ZM277.28,6a34.807,34.807,0,0,1-2.68,5.56,16.741,16.741,0,0,1-3.52,4.16,13.906,13.906,0,0,1-4.8,2.6,21.549,21.549,0,0,1-6.52.88,31.27,31.27,0,0,1-3.8-.24,23.533,23.533,0,0,1-3.4-.64L254,7.28a14.51,14.51,0,0,0,2.12.52,12.562,12.562,0,0,0,2.12.2q3.04,0,4.4-1.4a11.339,11.339,0,0,0,2.32-3.96l1.28-3.28L249.6-39.84h14.56l8.88,25.6h.24l7.92-25.6h13.92Z" transform="translate(322.16 169.76)" fill="#91f4ff"/>
    </g>
    <path id="Path_88" data-name="Path 88" d="M27.6,6a34.805,34.805,0,0,1-2.68,5.56,16.742,16.742,0,0,1-3.52,4.16,13.906,13.906,0,0,1-4.8,2.6,21.549,21.549,0,0,1-6.52.88,31.27,31.27,0,0,1-3.8-.24,23.533,23.533,0,0,1-3.4-.64L4.32,7.28a14.51,14.51,0,0,0,2.12.52A12.562,12.562,0,0,0,8.56,8q3.04,0,4.4-1.4a11.339,11.339,0,0,0,2.32-3.96L16.56-.64-.08-39.84H14.48l8.88,25.6h.24l7.92-25.6H45.44Zm73.12-26.08a21.533,21.533,0,0,1-1.76,8.84,19.821,19.821,0,0,1-4.8,6.72A21.973,21.973,0,0,1,87.12-.24a23.9,23.9,0,0,1-8.56,1.52A23.993,23.993,0,0,1,70.04-.24,21.41,21.41,0,0,1,63-4.52a20.09,20.09,0,0,1-4.76-6.72,21.533,21.533,0,0,1-1.76-8.84,21.255,21.255,0,0,1,1.76-8.8A19.76,19.76,0,0,1,63-35.52a20.7,20.7,0,0,1,7.04-4.16,25.185,25.185,0,0,1,8.52-1.44,25.082,25.082,0,0,1,8.56,1.44,21.219,21.219,0,0,1,7.04,4.16,19.5,19.5,0,0,1,4.8,6.64A21.255,21.255,0,0,1,100.72-20.08Zm-12.64,0a11.369,11.369,0,0,0-.64-3.76,9.943,9.943,0,0,0-1.84-3.24,9.353,9.353,0,0,0-2.96-2.28,9.01,9.01,0,0,0-4.08-.88,9.01,9.01,0,0,0-4.08.88,8.9,8.9,0,0,0-2.92,2.28,9.767,9.767,0,0,0-1.76,3.24,12.055,12.055,0,0,0-.6,3.76,12.055,12.055,0,0,0,.6,3.76A10.289,10.289,0,0,0,71.6-13a8.859,8.859,0,0,0,2.96,2.36,9.01,9.01,0,0,0,4.08.88,9.01,9.01,0,0,0,4.08-.88A8.859,8.859,0,0,0,85.68-13a10.288,10.288,0,0,0,1.8-3.32A12.055,12.055,0,0,0,88.08-20.08ZM143.28,0V-5.52h-.16a11.277,11.277,0,0,1-1.88,2.56,11.85,11.85,0,0,1-2.72,2.08A16.65,16.65,0,0,1,135.08.56a13.8,13.8,0,0,1-3.96.56,14.478,14.478,0,0,1-6.76-1.44,13.093,13.093,0,0,1-4.48-3.72,14.672,14.672,0,0,1-2.48-5.2,23.566,23.566,0,0,1-.76-5.96V-39.84h13.2v21.6a20.51,20.51,0,0,0,.24,3.2,8,8,0,0,0,.92,2.72,5.084,5.084,0,0,0,1.8,1.88,5.656,5.656,0,0,0,2.96.68A6,6,0,0,0,141-12.32a10.165,10.165,0,0,0,1.8-6V-39.84h13.12V0ZM200-29.12a10.219,10.219,0,0,0-1.72-.32q-.84-.08-1.64-.08a9.344,9.344,0,0,0-4.44.96,9.04,9.04,0,0,0-2.88,2.32,8.789,8.789,0,0,0-1.56,2.96,9.933,9.933,0,0,0-.48,2.8V0H174.16V-39.84H186.8v5.76h.16a12.931,12.931,0,0,1,4.32-4.96,11.179,11.179,0,0,1,6.48-1.92,14.9,14.9,0,0,1,1.56.08,6.007,6.007,0,0,1,1.24.24Z" transform="translate(445 463)" fill="none" stroke="#fff" stroke-linecap="round" stroke-width="2"/>
    <path id="Path_87" data-name="Path 87" d="M48.8-39.2a17.376,17.376,0,0,1-1.84,8.36A15.116,15.116,0,0,1,42-25.36a21.892,21.892,0,0,1-7.2,3.04,36.906,36.906,0,0,1-8.48.96h-6.8V0H5.84V-56.64h20.8a39.037,39.037,0,0,1,8.68.92,20.47,20.47,0,0,1,7.04,2.96,14.342,14.342,0,0,1,4.72,5.36A17.685,17.685,0,0,1,48.8-39.2Zm-13.68.08a6.1,6.1,0,0,0-.8-3.28,5.574,5.574,0,0,0-2.16-2,9.266,9.266,0,0,0-3.08-.96,25.742,25.742,0,0,0-3.56-.24h-6v13.36h5.76a20.543,20.543,0,0,0,3.68-.32,9.878,9.878,0,0,0,3.16-1.12,6,6,0,0,0,2.2-2.12A6.311,6.311,0,0,0,35.12-39.12Zm51.6,10A10.219,10.219,0,0,0,85-29.44q-.84-.08-1.64-.08a9.344,9.344,0,0,0-4.44.96,9.04,9.04,0,0,0-2.88,2.32,8.789,8.789,0,0,0-1.56,2.96,9.933,9.933,0,0,0-.48,2.8V0H60.88V-39.84H73.52v5.76h.16A12.931,12.931,0,0,1,78-39.04a11.179,11.179,0,0,1,6.48-1.92,14.9,14.9,0,0,1,1.56.08,6.007,6.007,0,0,1,1.24.24Zm54.64,9.04a21.533,21.533,0,0,1-1.76,8.84,19.822,19.822,0,0,1-4.8,6.72,21.973,21.973,0,0,1-7.04,4.28,23.9,23.9,0,0,1-8.56,1.52,23.993,23.993,0,0,1-8.52-1.52,21.41,21.41,0,0,1-7.04-4.28,20.09,20.09,0,0,1-4.76-6.72,21.533,21.533,0,0,1-1.76-8.84,21.255,21.255,0,0,1,1.76-8.8,19.76,19.76,0,0,1,4.76-6.64,20.7,20.7,0,0,1,7.04-4.16,25.185,25.185,0,0,1,8.52-1.44,25.082,25.082,0,0,1,8.56,1.44,21.219,21.219,0,0,1,7.04,4.16,19.5,19.5,0,0,1,4.8,6.64A21.255,21.255,0,0,1,141.36-20.08Zm-12.64,0a11.369,11.369,0,0,0-.64-3.76,9.943,9.943,0,0,0-1.84-3.24,9.353,9.353,0,0,0-2.96-2.28,9.01,9.01,0,0,0-4.08-.88,9.01,9.01,0,0,0-4.08.88,8.9,8.9,0,0,0-2.92,2.28,9.767,9.767,0,0,0-1.76,3.24,12.055,12.055,0,0,0-.6,3.76,12.055,12.055,0,0,0,.6,3.76,10.289,10.289,0,0,0,1.8,3.32,8.859,8.859,0,0,0,2.96,2.36,9.01,9.01,0,0,0,4.08.88,9.01,9.01,0,0,0,4.08-.88A8.859,8.859,0,0,0,126.32-13a10.288,10.288,0,0,0,1.8-3.32A12.055,12.055,0,0,0,128.72-20.08ZM171.92-30v15.2A6.816,6.816,0,0,0,173-10.6q1.08,1.4,3.88,1.4a13.95,13.95,0,0,0,2.04-.16,7,7,0,0,0,1.8-.48l.16,9.6a21.658,21.658,0,0,1-3.44.84,24.351,24.351,0,0,1-4.16.36,19.616,19.616,0,0,1-6.72-1,10.419,10.419,0,0,1-4.36-2.88,11.291,11.291,0,0,1-2.36-4.48,21.721,21.721,0,0,1-.72-5.8V-30h-6.4v-9.84h6.32V-50.32h12.88v10.48h9.36V-30Zm50.96,5.52a7.866,7.866,0,0,0-1.96-5.36q-1.96-2.24-5.88-2.24a9.952,9.952,0,0,0-3.52.6,9.118,9.118,0,0,0-2.8,1.64,8.11,8.11,0,0,0-1.92,2.44,7.143,7.143,0,0,0-.8,2.92Zm12.08,5.04v1.6a13.778,13.778,0,0,1-.08,1.52H206a6.957,6.957,0,0,0,1,3.04,8.645,8.645,0,0,0,2.16,2.36,10.462,10.462,0,0,0,2.96,1.56,10.449,10.449,0,0,0,3.4.56,11.037,11.037,0,0,0,5.28-1.16,10.445,10.445,0,0,0,3.52-3l9.12,5.76a18.452,18.452,0,0,1-7.4,6.28,24.489,24.489,0,0,1-10.68,2.2,25.484,25.484,0,0,1-8.48-1.4,20.592,20.592,0,0,1-7-4.08,18.893,18.893,0,0,1-4.72-6.6,22.1,22.1,0,0,1-1.72-8.96,22.421,22.421,0,0,1,1.68-8.84,19.985,19.985,0,0,1,4.56-6.72,20.328,20.328,0,0,1,6.8-4.28,23.254,23.254,0,0,1,8.48-1.52,21.462,21.462,0,0,1,8.08,1.48,17.588,17.588,0,0,1,6.32,4.28,19.772,19.772,0,0,1,4.12,6.8A26.17,26.17,0,0,1,234.96-19.44Zm43.6-7.52a7.963,7.963,0,0,0-3.04-2.32,9.319,9.319,0,0,0-3.92-.88,8.29,8.29,0,0,0-3.76.84,9.127,9.127,0,0,0-2.88,2.24,10.544,10.544,0,0,0-1.88,3.24,11.217,11.217,0,0,0-.68,3.92,11.848,11.848,0,0,0,.64,3.92,9.575,9.575,0,0,0,1.88,3.24,8.952,8.952,0,0,0,2.96,2.2,9.094,9.094,0,0,0,3.88.8,10.876,10.876,0,0,0,3.96-.76,7.588,7.588,0,0,0,3.16-2.2l7.28,8.88a17.107,17.107,0,0,1-6.4,3.76,25.2,25.2,0,0,1-8.32,1.36,26.257,26.257,0,0,1-8.8-1.44,20.3,20.3,0,0,1-7.08-4.2,19.718,19.718,0,0,1-4.72-6.68,21.89,21.89,0,0,1-1.72-8.88,21.681,21.681,0,0,1,1.72-8.8,19.718,19.718,0,0,1,4.72-6.68,20.8,20.8,0,0,1,7.08-4.24,25.376,25.376,0,0,1,8.72-1.48,23.035,23.035,0,0,1,4.28.4,28.617,28.617,0,0,1,4.08,1.08,18.6,18.6,0,0,1,3.6,1.68,15.132,15.132,0,0,1,2.84,2.2ZM313.6-30v15.2a6.816,6.816,0,0,0,1.08,4.2q1.08,1.4,3.88,1.4a13.95,13.95,0,0,0,2.04-.16,7,7,0,0,0,1.8-.48l.16,9.6a21.658,21.658,0,0,1-3.44.84,24.351,24.351,0,0,1-4.16.36,19.616,19.616,0,0,1-6.72-1,10.419,10.419,0,0,1-4.36-2.88,11.291,11.291,0,0,1-2.36-4.48,21.72,21.72,0,0,1-.72-5.8V-30h-6.4v-9.84h6.32V-50.32H313.6v10.48h9.36V-30Zm37.76-22.56a6.782,6.782,0,0,1-.6,2.84,7.327,7.327,0,0,1-1.6,2.28,7.376,7.376,0,0,1-2.4,1.52,7.791,7.791,0,0,1-2.92.56,7.35,7.35,0,0,1-5.36-2.12,6.867,6.867,0,0,1-2.16-5.08,7,7,0,0,1,.56-2.76,6.543,6.543,0,0,1,1.6-2.28,8.661,8.661,0,0,1,2.4-1.56,7.251,7.251,0,0,1,2.96-.6,7.791,7.791,0,0,1,2.92.56,7.376,7.376,0,0,1,2.4,1.52,7.327,7.327,0,0,1,1.6,2.28A6.782,6.782,0,0,1,351.36-52.56ZM337.28,0V-39.84H350.4V0Zm57.68,0V-21.76a17.643,17.643,0,0,0-.28-3.2,8.821,8.821,0,0,0-.92-2.68,4.771,4.771,0,0,0-1.8-1.84,5.7,5.7,0,0,0-2.92-.68,6.637,6.637,0,0,0-3.08.68,6.232,6.232,0,0,0-2.2,1.88,8.54,8.54,0,0,0-1.32,2.76A11.878,11.878,0,0,0,382-21.6V0H368.8V-39.84h12.72v5.52h.16a13.154,13.154,0,0,1,1.88-2.52,11.287,11.287,0,0,1,2.72-2.12,16.925,16.925,0,0,1,3.4-1.44,13.394,13.394,0,0,1,3.92-.56,14.726,14.726,0,0,1,6.8,1.44,12.994,12.994,0,0,1,4.52,3.72,14.644,14.644,0,0,1,2.48,5.24,23.721,23.721,0,0,1,.76,5.92V0Zm73.36-3.76A27.968,27.968,0,0,1,466.64,6.4a19.086,19.086,0,0,1-4.72,7.16,19.311,19.311,0,0,1-7.4,4.24,31.41,31.41,0,0,1-9.64,1.4,39.1,39.1,0,0,1-10.84-1.6,29.719,29.719,0,0,1-9.64-4.64l6.56-9.36a19.225,19.225,0,0,0,6.36,3.8,20.294,20.294,0,0,0,6.84,1.24q5.76,0,8.52-3.04a11.559,11.559,0,0,0,2.76-8.08v-2.4h-.24a12.932,12.932,0,0,1-4.96,3.84A16.81,16.81,0,0,1,443.12.4a18.93,18.93,0,0,1-8.08-1.64,17.725,17.725,0,0,1-5.96-4.44,19.43,19.43,0,0,1-3.72-6.52,24.05,24.05,0,0,1-1.28-7.88A24.407,24.407,0,0,1,425.36-28a20.261,20.261,0,0,1,3.72-6.64,18.154,18.154,0,0,1,5.96-4.6,17.99,17.99,0,0,1,8-1.72,17.625,17.625,0,0,1,7.2,1.52,12.476,12.476,0,0,1,5.52,4.72h.16v-5.12h12.4Zm-12.48-16.4a10.989,10.989,0,0,0-.68-3.84,9.766,9.766,0,0,0-1.96-3.24,9.27,9.27,0,0,0-3.04-2.2,9.566,9.566,0,0,0-4-.8,9.293,9.293,0,0,0-3.96.8,8.779,8.779,0,0,0-2.92,2.16,9.487,9.487,0,0,0-1.84,3.2,11.848,11.848,0,0,0-.64,3.92,11.6,11.6,0,0,0,.64,3.84,9.943,9.943,0,0,0,1.84,3.24,8.995,8.995,0,0,0,2.92,2.24,8.916,8.916,0,0,0,3.96.84,9.44,9.44,0,0,0,4.04-.84,9.483,9.483,0,0,0,3.04-2.2,9.665,9.665,0,0,0,1.92-3.2A11.217,11.217,0,0,0,455.84-20.16Z" transform="translate(349 354)" fill="#fff"/>
    <path id="Path_86" data-name="Path 86" d="M5.28,0V-60.48H18.56V0ZM64.4-24.48a7.866,7.866,0,0,0-1.96-5.36q-1.96-2.24-5.88-2.24a9.952,9.952,0,0,0-3.52.6,9.118,9.118,0,0,0-2.8,1.64,8.11,8.11,0,0,0-1.92,2.44,7.143,7.143,0,0,0-.8,2.92Zm12.08,5.04v1.6a13.776,13.776,0,0,1-.08,1.52H47.52a6.957,6.957,0,0,0,1,3.04,8.644,8.644,0,0,0,2.16,2.36,10.462,10.462,0,0,0,2.96,1.56,10.449,10.449,0,0,0,3.4.56,11.037,11.037,0,0,0,5.28-1.16,10.445,10.445,0,0,0,3.52-3L74.96-7.2a18.452,18.452,0,0,1-7.4,6.28,24.489,24.489,0,0,1-10.68,2.2A25.484,25.484,0,0,1,48.4-.12a20.592,20.592,0,0,1-7-4.08,18.893,18.893,0,0,1-4.72-6.6,22.1,22.1,0,0,1-1.72-8.96,22.421,22.421,0,0,1,1.68-8.84,19.985,19.985,0,0,1,4.56-6.72A20.328,20.328,0,0,1,48-39.6a23.254,23.254,0,0,1,8.48-1.52,21.462,21.462,0,0,1,8.08,1.48,17.588,17.588,0,0,1,6.32,4.28A19.772,19.772,0,0,1,75-28.56,26.169,26.169,0,0,1,76.48-19.44Zm58.4,15.68A27.968,27.968,0,0,1,133.2,6.4a19.086,19.086,0,0,1-4.72,7.16,19.311,19.311,0,0,1-7.4,4.24,31.41,31.41,0,0,1-9.64,1.4,39.1,39.1,0,0,1-10.84-1.6,29.719,29.719,0,0,1-9.64-4.64L97.52,3.6a19.225,19.225,0,0,0,6.36,3.8,20.294,20.294,0,0,0,6.84,1.24q5.76,0,8.52-3.04A11.559,11.559,0,0,0,122-2.48v-2.4h-.24a12.932,12.932,0,0,1-4.96,3.84A16.81,16.81,0,0,1,109.68.4a18.93,18.93,0,0,1-8.08-1.64,17.724,17.724,0,0,1-5.96-4.44,19.431,19.431,0,0,1-3.72-6.52,24.05,24.05,0,0,1-1.28-7.88A24.407,24.407,0,0,1,91.92-28a20.261,20.261,0,0,1,3.72-6.64,18.154,18.154,0,0,1,5.96-4.6,17.99,17.99,0,0,1,8-1.72,17.625,17.625,0,0,1,7.2,1.52,12.476,12.476,0,0,1,5.52,4.72h.16v-5.12h12.4ZM122.4-20.16a10.989,10.989,0,0,0-.68-3.84,9.766,9.766,0,0,0-1.96-3.24,9.27,9.27,0,0,0-3.04-2.2,9.566,9.566,0,0,0-4-.8,9.293,9.293,0,0,0-3.96.8,8.779,8.779,0,0,0-2.92,2.16,9.488,9.488,0,0,0-1.84,3.2,11.848,11.848,0,0,0-.64,3.92,11.6,11.6,0,0,0,.64,3.84,9.943,9.943,0,0,0,1.84,3.24,9,9,0,0,0,2.92,2.24,8.916,8.916,0,0,0,3.96.84,9.44,9.44,0,0,0,4.04-.84,9.483,9.483,0,0,0,3.04-2.2,9.664,9.664,0,0,0,1.92-3.2A11.218,11.218,0,0,0,122.4-20.16Zm54.4,2.8h-1.68q-2.16,0-4.36.2a17.934,17.934,0,0,0-3.92.76A7.25,7.25,0,0,0,164-14.76a3.766,3.766,0,0,0-1.12,2.84A3.446,3.446,0,0,0,163.4-10a4.034,4.034,0,0,0,1.32,1.28,5.6,5.6,0,0,0,1.84.68,10.591,10.591,0,0,0,2,.2,8.108,8.108,0,0,0,6.12-2.2A8.228,8.228,0,0,0,176.8-16ZM152.72-34.4a22.975,22.975,0,0,1,8.2-5.04,28.1,28.1,0,0,1,9.56-1.68A25.554,25.554,0,0,1,179-39.88a12.694,12.694,0,0,1,5.64,3.84,16.377,16.377,0,0,1,3.16,6.56,38.763,38.763,0,0,1,1,9.4V0h-12V-4.24h-.24a9.872,9.872,0,0,1-4.6,3.84A16.351,16.351,0,0,1,165.28.96a20.424,20.424,0,0,1-4.96-.64,14.528,14.528,0,0,1-4.68-2.08,11.265,11.265,0,0,1-3.48-3.84,11.853,11.853,0,0,1-1.36-5.92,10.051,10.051,0,0,1,2.36-6.96,15.485,15.485,0,0,1,6.08-4.08,32.211,32.211,0,0,1,8.28-1.92,84.831,84.831,0,0,1,8.88-.48v-.64a4.885,4.885,0,0,0-2.08-4.36,8.962,8.962,0,0,0-5.12-1.4,12.746,12.746,0,0,0-5.4,1.2,17.236,17.236,0,0,0-4.44,2.88ZM234-26.96a7.963,7.963,0,0,0-3.04-2.32,9.319,9.319,0,0,0-3.92-.88,8.29,8.29,0,0,0-3.76.84,9.126,9.126,0,0,0-2.88,2.24,10.543,10.543,0,0,0-1.88,3.24,11.217,11.217,0,0,0-.68,3.92,11.848,11.848,0,0,0,.64,3.92,9.575,9.575,0,0,0,1.88,3.24,8.952,8.952,0,0,0,2.96,2.2,9.094,9.094,0,0,0,3.88.8,10.876,10.876,0,0,0,3.96-.76,7.588,7.588,0,0,0,3.16-2.2l7.28,8.88a17.106,17.106,0,0,1-6.4,3.76,25.2,25.2,0,0,1-8.32,1.36,26.257,26.257,0,0,1-8.8-1.44A20.3,20.3,0,0,1,211-4.36a19.718,19.718,0,0,1-4.72-6.68,21.89,21.89,0,0,1-1.72-8.88,21.681,21.681,0,0,1,1.72-8.8A19.718,19.718,0,0,1,211-35.4a20.8,20.8,0,0,1,7.08-4.24,25.376,25.376,0,0,1,8.72-1.48,23.034,23.034,0,0,1,4.28.4,28.616,28.616,0,0,1,4.08,1.08,18.6,18.6,0,0,1,3.6,1.68,15.131,15.131,0,0,1,2.84,2.2ZM277.28,6a34.807,34.807,0,0,1-2.68,5.56,16.741,16.741,0,0,1-3.52,4.16,13.906,13.906,0,0,1-4.8,2.6,21.549,21.549,0,0,1-6.52.88,31.27,31.27,0,0,1-3.8-.24,23.533,23.533,0,0,1-3.4-.64L254,7.28a14.51,14.51,0,0,0,2.12.52,12.562,12.562,0,0,0,2.12.2q3.04,0,4.4-1.4a11.339,11.339,0,0,0,2.32-3.96l1.28-3.28L249.6-39.84h14.56l8.88,25.6h.24l7.92-25.6h13.92Z" transform="translate(680 461)" fill="#643694"/>
  </g>
</svg>
