<svg xmlns="http://www.w3.org/2000/svg" width="80.13" height="59.5" viewBox="0 0 80.13 59.5">
  <g id="product-icon" transform="translate(-658 -4011.146)">
    <path id="Path_15" data-name="Path 15" d="M-27.137-52.258V-73.283q0-14.947,7.125-23.616T.763-108.258v10.363Q-9.4-94.706-12.888-86.934a17.77,17.77,0,0,0-1.495,8.47H1.261v26.206ZM47.994-97.895Q37.93-94.806,34.443-86.735a15.736,15.736,0,0,0-1.594,8.27H48.493v26.206h-28.4V-73.283q0-15.146,7.324-23.715t20.577-11.26Z" transform="translate(685.137 4119.404)" fill="#dbfdff"/>
    <path id="Path_12" data-name="Path 12" d="M-27.137-52.258V-73.283q0-14.947,7.125-23.616T.763-108.258v10.363Q-9.4-94.706-12.888-86.934a17.77,17.77,0,0,0-1.495,8.47H1.261v26.206ZM47.994-97.895Q37.93-94.806,34.443-86.735a15.736,15.736,0,0,0-1.594,8.27H48.493v26.206h-28.4V-73.283q0-15.146,7.324-23.715t20.577-11.26Z" transform="translate(689.137 4122.404)" fill="none" stroke="#c4f9ff" stroke-width="1"/>
  </g>
</svg>
