<svg xmlns="http://www.w3.org/2000/svg" width="1178.328" height="172.608" viewBox="0 0 1178.328 172.608">
  <g id="reason-h2" transform="translate(-374.808 -1235.568)">
    <path id="Path_95" data-name="Path 95" d="M38.512,0h-16.7V-164.256H70.064a102.051,102.051,0,0,1,22.388,2.32,50.473,50.473,0,0,1,17.864,7.54,35.568,35.568,0,0,1,11.716,13.572q4.176,8.352,4.176,20.416a40.664,40.664,0,0,1-3.248,16.472,40.58,40.58,0,0,1-8.816,12.876,42.278,42.278,0,0,1-13.224,8.7,57.562,57.562,0,0,1-16.7,4.176L132.24,0H111.824L66.352-76.792H38.512Zm0-91.176h29q20.184,0,31.088-7.308t10.9-21.924a28.429,28.429,0,0,0-3.016-13.688,24.681,24.681,0,0,0-8.352-9.048,38.039,38.039,0,0,0-12.992-5.1,81.767,81.767,0,0,0-16.936-1.624h-29.7ZM200.68-14.848h87.928V0H183.976V-164.256H285.824v14.848H200.68V-92.8h79.576v14.616H200.68ZM343.36,0H325.032l70.992-164.256h16.24L482.792,0h-18.56l-18.1-43.152H361.224Zm24.128-58.464h72.384L403.68-145.7ZM609.7-137.808a40.118,40.118,0,0,0-13.688-11.948q-8.352-4.524-20.184-4.524a43.148,43.148,0,0,0-12.3,1.856,35.67,35.67,0,0,0-11.368,5.684,29.214,29.214,0,0,0-8.236,9.628,28.4,28.4,0,0,0-3.132,13.688q0,7.888,3.016,12.992a28.572,28.572,0,0,0,8,8.7,46.467,46.467,0,0,0,11.368,5.916q6.38,2.32,13.34,4.64,8.584,2.784,17.284,6.032a62.151,62.151,0,0,1,15.66,8.468,41.009,41.009,0,0,1,11.368,13.224q4.408,8,4.408,20.3t-4.756,21.228a44.932,44.932,0,0,1-12.3,14.732A51.173,51.173,0,0,1,591.02,1.392a69.426,69.426,0,0,1-19.372,2.784A74.418,74.418,0,0,1,556.8,2.668a67.165,67.165,0,0,1-14.152-4.524A57.881,57.881,0,0,1,530.12-9.512a55.654,55.654,0,0,1-10.208-10.672L534.3-30.856A44.03,44.03,0,0,0,549.26-16.124q9.628,5.916,22.62,5.916a43.783,43.783,0,0,0,12.76-1.972,35.881,35.881,0,0,0,11.716-6.032,33.413,33.413,0,0,0,8.584-9.976,27.448,27.448,0,0,0,3.364-13.8q0-8.584-3.364-14.268a29.947,29.947,0,0,0-8.932-9.512,54.67,54.67,0,0,0-12.76-6.38q-7.192-2.552-15.08-5.1-8.12-2.552-16.008-5.8a54.146,54.146,0,0,1-14.152-8.468A39.551,39.551,0,0,1,527.916-104.4q-3.828-7.656-3.828-18.792,0-11.832,4.756-20.416a43.016,43.016,0,0,1,12.412-14.152,51.974,51.974,0,0,1,16.936-8.12,68.9,68.9,0,0,1,18.328-2.552q16.7,0,28.536,5.916T622.92-148.48Zm236.872,55.68a89.927,89.927,0,0,1-6.5,34.568,82.492,82.492,0,0,1-17.98,27.26A82.789,82.789,0,0,1,794.948-2.32a87.827,87.827,0,0,1-33.988,6.5,87.827,87.827,0,0,1-33.988-6.5A82.789,82.789,0,0,1,699.828-20.3a82.494,82.494,0,0,1-17.98-27.26,89.929,89.929,0,0,1-6.5-34.568,89.929,89.929,0,0,1,6.5-34.568,82.494,82.494,0,0,1,17.98-27.26,82.79,82.79,0,0,1,27.144-17.98,87.827,87.827,0,0,1,33.988-6.5,87.827,87.827,0,0,1,33.988,6.5,82.79,82.79,0,0,1,27.144,17.98,82.493,82.493,0,0,1,17.98,27.26A89.928,89.928,0,0,1,846.568-82.128Zm-17.632,0A80.779,80.779,0,0,0,824.3-109.5a68.423,68.423,0,0,0-13.456-22.852,64.424,64.424,0,0,0-21.46-15.66,67.4,67.4,0,0,0-28.42-5.8,67.394,67.394,0,0,0-28.42,5.8,64.424,64.424,0,0,0-21.46,15.66A68.424,68.424,0,0,0,697.624-109.5a80.779,80.779,0,0,0-4.64,27.376,80.779,80.779,0,0,0,4.64,27.376A67.146,67.146,0,0,0,711.08-32.016a65.206,65.206,0,0,0,21.46,15.544,67.394,67.394,0,0,0,28.42,5.8,67.4,67.4,0,0,0,28.42-5.8,65.205,65.205,0,0,0,21.46-15.544A67.145,67.145,0,0,0,824.3-54.752,80.779,80.779,0,0,0,828.936-82.128Zm192.1,57.768h.464v-139.9h16.7V0h-20.88L921.736-141.288h-.464V0h-16.7V-164.256h20.88Zm163.56-113.448a40.118,40.118,0,0,0-13.688-11.948q-8.352-4.524-20.184-4.524a43.148,43.148,0,0,0-12.3,1.856,35.671,35.671,0,0,0-11.368,5.684,29.213,29.213,0,0,0-8.236,9.628,28.4,28.4,0,0,0-3.132,13.688q0,7.888,3.016,12.992a28.571,28.571,0,0,0,8,8.7,46.469,46.469,0,0,0,11.368,5.916q6.38,2.32,13.34,4.64,8.584,2.784,17.284,6.032a62.151,62.151,0,0,1,15.66,8.468,41.008,41.008,0,0,1,11.368,13.224q4.408,8,4.408,20.3t-4.756,21.228a44.931,44.931,0,0,1-12.3,14.732,51.174,51.174,0,0,1-17.168,8.584,69.427,69.427,0,0,1-19.372,2.784A74.416,74.416,0,0,1,1131.7,2.668a67.165,67.165,0,0,1-14.152-4.524,57.885,57.885,0,0,1-12.528-7.656,55.658,55.658,0,0,1-10.208-10.672l14.384-10.672a44.029,44.029,0,0,0,14.964,14.732q9.628,5.916,22.62,5.916a43.783,43.783,0,0,0,12.76-1.972,35.88,35.88,0,0,0,11.716-6.032,33.411,33.411,0,0,0,8.584-9.976,27.449,27.449,0,0,0,3.364-13.8q0-8.584-3.364-14.268a29.946,29.946,0,0,0-8.932-9.512,54.671,54.671,0,0,0-12.76-6.38q-7.192-2.552-15.08-5.1-8.12-2.552-16.008-5.8a54.143,54.143,0,0,1-14.152-8.468,39.55,39.55,0,0,1-10.092-12.876q-3.828-7.656-3.828-18.792,0-11.832,4.756-20.416a43.014,43.014,0,0,1,12.412-14.152,51.975,51.975,0,0,1,16.936-8.12,68.9,68.9,0,0,1,18.328-2.552q16.7,0,28.536,5.916t17.864,14.036Z" transform="translate(353 1404)" fill="#643694" opacity="0.05"/>
    <path id="Path_96" data-name="Path 96" d="M-339.57-42.48h8.28l8.22,31.2h.12l9.36-31.2h7.8l9.18,31.2h.12l8.4-31.2h8.04L-292.47,0h-7.32l-9.96-31.86h-.12L-319.83,0h-7.32Zm67.56,0h7.56v17.16h19.86V-42.48h7.56V0h-7.56V-18.84h-19.86V0h-7.56Zm57.6,24.06-15.96-24.06h9.24l10.68,17.88,10.8-17.88h8.76l-15.96,24.06V0h-7.56Zm80.46,2.82a17.475,17.475,0,0,1-1.32,6.93,15.536,15.536,0,0,1-3.6,5.25,15.835,15.835,0,0,1-5.4,3.33,19.159,19.159,0,0,1-6.78,1.17,19.159,19.159,0,0,1-6.78-1.17,16.162,16.162,0,0,1-5.43-3.33,14.987,14.987,0,0,1-3.6-5.25,17.831,17.831,0,0,1-1.29-6.93V-42.48h7.56V-15.9a14.488,14.488,0,0,0,.48,3.69,9.059,9.059,0,0,0,1.59,3.27,8.208,8.208,0,0,0,2.94,2.34,10.214,10.214,0,0,0,4.53.9,10.214,10.214,0,0,0,4.53-.9,8.208,8.208,0,0,0,2.94-2.34,9.059,9.059,0,0,0,1.59-3.27,14.487,14.487,0,0,0,.48-3.69V-42.48h7.56Zm33.66-18a9.178,9.178,0,0,0-3.39-2.61,10.115,10.115,0,0,0-4.41-1.05,10.849,10.849,0,0,0-2.64.33,8.048,8.048,0,0,0-2.4,1.02,5.637,5.637,0,0,0-1.77,1.8,4.958,4.958,0,0,0-.69,2.67,4.77,4.77,0,0,0,.6,2.46,5.459,5.459,0,0,0,1.65,1.74,11.223,11.223,0,0,0,2.55,1.26q1.5.54,3.3,1.08,2.04.66,4.23,1.5a16.384,16.384,0,0,1,4.02,2.22,11,11,0,0,1,3,3.48,10.607,10.607,0,0,1,1.17,5.22,13.325,13.325,0,0,1-1.26,5.97,12.318,12.318,0,0,1-3.36,4.23A14.328,14.328,0,0,1-104.61.24a20.7,20.7,0,0,1-5.94.84,22.3,22.3,0,0,1-8.1-1.53,15.645,15.645,0,0,1-6.48-4.53l5.4-5.04a10.844,10.844,0,0,0,4.17,3.42,11.741,11.741,0,0,0,5.13,1.26,11.587,11.587,0,0,0,2.7-.33,7.2,7.2,0,0,0,2.49-1.11,6.215,6.215,0,0,0,1.8-1.95,5.647,5.647,0,0,0,.69-2.91,4.736,4.736,0,0,0-.78-2.79,6.976,6.976,0,0,0-2.1-1.92,15.075,15.075,0,0,0-3.12-1.41l-3.78-1.26a37.447,37.447,0,0,1-3.84-1.44,12.735,12.735,0,0,1-3.45-2.22,10.728,10.728,0,0,1-2.49-3.39,11.6,11.6,0,0,1-.96-5.01,10.981,10.981,0,0,1,1.35-5.58,11.937,11.937,0,0,1,3.54-3.87,15.755,15.755,0,0,1,4.98-2.28,21.748,21.748,0,0,1,5.67-.75,20.2,20.2,0,0,1,6.57,1.14A16.053,16.053,0,0,1-95.37-39Zm15.78-8.88h28.14v6.6H-76.95v10.8h19.5v6.36h-19.5v12h21.66V0H-84.51Zm69.84,0h6.54L10.17,0H1.53L-2.43-9.72H-20.85L-24.69,0h-8.46Zm9.6,26.28-6.54-17.28L-18.27-16.2ZM34.29-42.48H50.85a19.957,19.957,0,0,1,4.74.57,12.151,12.151,0,0,1,4.17,1.86,9.942,9.942,0,0,1,2.97,3.33,9.942,9.942,0,0,1,1.14,4.92,8.712,8.712,0,0,1-2.04,5.94,11.344,11.344,0,0,1-5.34,3.36v.12a11.132,11.132,0,0,1,6.6,3.12,9.325,9.325,0,0,1,2.58,6.9,11.46,11.46,0,0,1-1.38,5.85A11.049,11.049,0,0,1,60.66-2.7,15.607,15.607,0,0,1,55.5-.63,27.851,27.851,0,0,1,49.59,0H34.29ZM41.85-25.2h6.72a9.42,9.42,0,0,0,5.76-1.5,5.029,5.029,0,0,0,1.98-4.26,4.346,4.346,0,0,0-2.04-4.08q-2.04-1.2-6.36-1.2H41.85Zm0,18.84h6.78a25.262,25.262,0,0,0,3.12-.21,10.235,10.235,0,0,0,3.09-.87,6.058,6.058,0,0,0,2.34-1.92,5.531,5.531,0,0,0,.93-3.36q0-3.36-2.28-4.68t-6.9-1.32H41.85ZM76.11-42.48H90.87a26.614,26.614,0,0,1,5.82.63,14.967,14.967,0,0,1,5.01,2.07A10.8,10.8,0,0,1,105.21-36a11.441,11.441,0,0,1,1.32,5.7,10.85,10.85,0,0,1-2.61,7.53,13.143,13.143,0,0,1-7.11,3.93L108.15,0H99.03L89.19-18H83.67V0H76.11Zm13.74,18.3a22.08,22.08,0,0,0,3.24-.24,9.355,9.355,0,0,0,2.91-.9,5.683,5.683,0,0,0,2.13-1.89,5.47,5.47,0,0,0,.84-3.15,4.846,4.846,0,0,0-.78-2.85,5.808,5.808,0,0,0-1.98-1.77,8.281,8.281,0,0,0-2.73-.9,19.16,19.16,0,0,0-2.97-.24H83.67v11.94Zm24.96,2.82a23.767,23.767,0,0,1,1.71-9.21,20.222,20.222,0,0,1,4.74-6.99,20.987,20.987,0,0,1,7.2-4.44,25.745,25.745,0,0,1,9.09-1.56A26.171,26.171,0,0,1,146.73-42a21.251,21.251,0,0,1,7.26,4.44,20.022,20.022,0,0,1,4.77,6.99,23.767,23.767,0,0,1,1.71,9.21,23.442,23.442,0,0,1-1.71,9.09,20.962,20.962,0,0,1-4.77,7.08,21.667,21.667,0,0,1-7.26,4.62,24.891,24.891,0,0,1-9.18,1.65,24.489,24.489,0,0,1-9.09-1.65,21.4,21.4,0,0,1-7.2-4.62,21.181,21.181,0,0,1-4.74-7.08A23.442,23.442,0,0,1,114.81-21.36Zm8.22,0a18.012,18.012,0,0,0,1.05,6.27,14.6,14.6,0,0,0,3,4.95,13.779,13.779,0,0,0,4.62,3.27,14.568,14.568,0,0,0,5.91,1.17,14.782,14.782,0,0,0,5.94-1.17,13.7,13.7,0,0,0,4.65-3.27,14.6,14.6,0,0,0,3-4.95,18.012,18.012,0,0,0,1.05-6.27,17.4,17.4,0,0,0-1.05-6.12,14.922,14.922,0,0,0-2.97-4.92,13.74,13.74,0,0,0-4.62-3.3,14.613,14.613,0,0,0-6-1.2,14.4,14.4,0,0,0-5.97,1.2,13.82,13.82,0,0,0-4.59,3.3,14.922,14.922,0,0,0-2.97,4.92A17.4,17.4,0,0,0,123.03-21.36Zm47.76-21.12h7.56v18.36h.18l17.76-18.36h10.2L186.63-22.86,207.81,0H197.19L178.53-21.3h-.18V0h-7.56Zm44.34,0h28.14v6.6H222.69v10.8h19.5v6.36h-19.5v12h21.66V0H215.13Zm39.6,0h14.76a26.614,26.614,0,0,1,5.82.63,14.968,14.968,0,0,1,5.01,2.07A10.8,10.8,0,0,1,283.83-36a11.441,11.441,0,0,1,1.32,5.7,10.85,10.85,0,0,1-2.61,7.53,13.143,13.143,0,0,1-7.11,3.93L286.77,0h-9.12l-9.84-18h-5.52V0h-7.56Zm13.74,18.3a22.08,22.08,0,0,0,3.24-.24,9.355,9.355,0,0,0,2.91-.9,5.683,5.683,0,0,0,2.13-1.89,5.47,5.47,0,0,0,.84-3.15,4.846,4.846,0,0,0-.78-2.85,5.807,5.807,0,0,0-1.98-1.77,8.282,8.282,0,0,0-2.73-.9,19.16,19.16,0,0,0-2.97-.24h-6.84v11.94Zm52.92,11.64v-2.28a14.327,14.327,0,0,1,.21-2.58,9.67,9.67,0,0,1,.66-2.16,9.349,9.349,0,0,1,1.2-1.98,18.857,18.857,0,0,1,1.89-2.04l2.7-2.58A11.115,11.115,0,0,0,330-28.44a5.541,5.541,0,0,0,.81-3.06,5.571,5.571,0,0,0-1.47-3.93,5.4,5.4,0,0,0-4.17-1.59,5.9,5.9,0,0,0-2.49.51,6.039,6.039,0,0,0-1.92,1.38,5.922,5.922,0,0,0-1.23,2.01,7.868,7.868,0,0,0-.48,2.34l-7.38-.66a15.086,15.086,0,0,1,1.53-5.13,12.34,12.34,0,0,1,3.03-3.81,13.058,13.058,0,0,1,4.26-2.37,16.034,16.034,0,0,1,5.16-.81,15.738,15.738,0,0,1,4.89.75,12.222,12.222,0,0,1,4.08,2.22,10.45,10.45,0,0,1,2.79,3.63,11.537,11.537,0,0,1,1.02,4.98,12.049,12.049,0,0,1-.42,3.36,9.9,9.9,0,0,1-1.2,2.64,14.289,14.289,0,0,1-1.89,2.31q-1.11,1.11-2.49,2.31-1.2,1.02-1.95,1.8a8.158,8.158,0,0,0-1.2,1.56,5.5,5.5,0,0,0-.63,1.68,11.558,11.558,0,0,0-.18,2.22v1.56Zm-1.2,8.34a4.456,4.456,0,0,1,1.41-3.3,4.673,4.673,0,0,1,3.39-1.38,4.816,4.816,0,0,1,3.36,1.32,4.225,4.225,0,0,1,1.44,3.24,4.456,4.456,0,0,1-1.41,3.3A4.673,4.673,0,0,1,324.99.36,4.739,4.739,0,0,1,323.16,0a5.219,5.219,0,0,1-1.53-.96,4.461,4.461,0,0,1-1.05-1.44A4.222,4.222,0,0,1,320.19-4.2Z" transform="translate(960 1379)" fill="#643694"/>
  </g>
</svg>
