<svg xmlns="http://www.w3.org/2000/svg" xmlns:xlink="http://www.w3.org/1999/xlink" width="327" height="104" viewBox="0 0 327 104">
  <defs>
    <clipPath id="clip-path">
      <rect id="Rectangle_103" data-name="Rectangle 103" width="327" height="104" transform="translate(16 137)" fill="#fff" stroke="#707070" stroke-width="1"/>
    </clipPath>
    <filter id="Path_100" x="99.706" y="-12.996" width="298.543" height="190.836" filterUnits="userSpaceOnUse">
      <feOffset input="SourceAlpha"/>
      <feGaussianBlur stdDeviation="25" result="blur"/>
      <feFlood flood-color="#fff"/>
      <feComposite operator="in" in2="blur"/>
      <feComposite in="SourceGraphic"/>
    </filter>
  </defs>
  <g id="kv-title" transform="translate(-16 -137)" clip-path="url(#clip-path)">
    <g id="kv-title-2" data-name="kv-title" transform="translate(-333 -142)">
      <g transform="matrix(1, 0, 0, 1, 349, 279)" filter="url(#Path_100)">
        <path id="Path_100-2" data-name="Path 100" d="M2.706,0V-31H9.512V0Zm30.3-12.546a4.031,4.031,0,0,0-1-2.747,3.792,3.792,0,0,0-3.014-1.148,5.1,5.1,0,0,0-1.8.308,4.673,4.673,0,0,0-1.435.84,4.157,4.157,0,0,0-.984,1.25,3.661,3.661,0,0,0-.41,1.5ZM39.2-9.963v.82a7.061,7.061,0,0,1-.041.779h-14.8a3.565,3.565,0,0,0,.513,1.558A4.43,4.43,0,0,0,25.973-5.6a5.362,5.362,0,0,0,1.517.8,5.355,5.355,0,0,0,1.743.287A5.657,5.657,0,0,0,31.939-5.1a5.353,5.353,0,0,0,1.8-1.538L38.417-3.69A9.457,9.457,0,0,1,34.625-.472,12.551,12.551,0,0,1,29.151.656a13.061,13.061,0,0,1-4.346-.718,10.553,10.553,0,0,1-3.587-2.091A9.683,9.683,0,0,1,18.8-5.535a11.327,11.327,0,0,1-.882-4.592,11.491,11.491,0,0,1,.861-4.53A10.242,10.242,0,0,1,21.115-18.1,10.418,10.418,0,0,1,24.6-20.3a11.918,11.918,0,0,1,4.346-.779,11,11,0,0,1,4.141.758,9.014,9.014,0,0,1,3.239,2.194,10.133,10.133,0,0,1,2.111,3.485A13.412,13.412,0,0,1,39.2-9.963Zm29.93,8.036a14.334,14.334,0,0,1-.861,5.207,9.781,9.781,0,0,1-2.419,3.669,9.9,9.9,0,0,1-3.793,2.173,16.1,16.1,0,0,1-4.94.718,20.041,20.041,0,0,1-5.556-.82,15.231,15.231,0,0,1-4.94-2.378l3.362-4.8a9.853,9.853,0,0,0,3.26,1.947,10.4,10.4,0,0,0,3.505.635A5.615,5.615,0,0,0,61.111,2.87a5.924,5.924,0,0,0,1.415-4.141V-2.5H62.4A6.627,6.627,0,0,1,59.86-.533,8.615,8.615,0,0,1,56.211.2,9.7,9.7,0,0,1,52.07-.636a9.084,9.084,0,0,1-3.055-2.275,9.958,9.958,0,0,1-1.906-3.342,12.326,12.326,0,0,1-.656-4.038,12.508,12.508,0,0,1,.656-4.059,10.384,10.384,0,0,1,1.906-3.4,9.3,9.3,0,0,1,3.055-2.358,9.22,9.22,0,0,1,4.1-.882,9.033,9.033,0,0,1,3.69.779,6.394,6.394,0,0,1,2.829,2.419h.082v-2.624h6.355Zm-6.4-8.4a5.632,5.632,0,0,0-.348-1.968,5.005,5.005,0,0,0-1-1.66,4.751,4.751,0,0,0-1.558-1.128,4.9,4.9,0,0,0-2.05-.41,4.763,4.763,0,0,0-2.029.41,4.5,4.5,0,0,0-1.5,1.107,4.863,4.863,0,0,0-.943,1.64,6.072,6.072,0,0,0-.328,2.009A5.948,5.948,0,0,0,53.3-8.364,5.1,5.1,0,0,0,54.243-6.7a4.61,4.61,0,0,0,1.5,1.148,4.569,4.569,0,0,0,2.029.431,4.838,4.838,0,0,0,2.07-.431A4.86,4.86,0,0,0,61.4-6.683a4.953,4.953,0,0,0,.984-1.64A5.749,5.749,0,0,0,62.73-10.332ZM90.61-8.9h-.861q-1.107,0-2.235.1a9.191,9.191,0,0,0-2.009.389,3.715,3.715,0,0,0-1.455.84,1.93,1.93,0,0,0-.574,1.455,1.766,1.766,0,0,0,.267.984,2.067,2.067,0,0,0,.676.656,2.87,2.87,0,0,0,.943.348,5.428,5.428,0,0,0,1.025.1,4.155,4.155,0,0,0,3.136-1.127A4.217,4.217,0,0,0,90.61-8.2ZM78.269-17.63a11.775,11.775,0,0,1,4.2-2.583,14.4,14.4,0,0,1,4.9-.861,13.1,13.1,0,0,1,4.367.635,6.506,6.506,0,0,1,2.89,1.968,8.393,8.393,0,0,1,1.619,3.362,19.866,19.866,0,0,1,.513,4.818V0H90.61V-2.173h-.123A5.06,5.06,0,0,1,88.13-.2a8.38,8.38,0,0,1-3.424.7A10.467,10.467,0,0,1,82.164.164,7.446,7.446,0,0,1,79.766-.9,5.773,5.773,0,0,1,77.982-2.87a6.075,6.075,0,0,1-.7-3.034,5.151,5.151,0,0,1,1.21-3.567,7.936,7.936,0,0,1,3.116-2.091,16.508,16.508,0,0,1,4.243-.984,43.476,43.476,0,0,1,4.551-.246v-.328a2.5,2.5,0,0,0-1.066-2.234,4.593,4.593,0,0,0-2.624-.718,6.532,6.532,0,0,0-2.767.615,8.834,8.834,0,0,0-2.276,1.476Zm41.656,3.813a4.081,4.081,0,0,0-1.558-1.189,4.776,4.776,0,0,0-2.009-.451,4.249,4.249,0,0,0-1.927.431,4.677,4.677,0,0,0-1.476,1.148,5.4,5.4,0,0,0-.964,1.66,5.749,5.749,0,0,0-.349,2.009,6.072,6.072,0,0,0,.328,2.009,4.907,4.907,0,0,0,.964,1.66,4.588,4.588,0,0,0,1.517,1.128A4.661,4.661,0,0,0,116.44-5a5.574,5.574,0,0,0,2.029-.39,3.889,3.889,0,0,0,1.619-1.127l3.731,4.551a8.767,8.767,0,0,1-3.28,1.927,12.917,12.917,0,0,1-4.264.7,13.457,13.457,0,0,1-4.51-.738,10.4,10.4,0,0,1-3.629-2.152,10.106,10.106,0,0,1-2.419-3.424,11.218,11.218,0,0,1-.882-4.551,11.112,11.112,0,0,1,.882-4.51,10.106,10.106,0,0,1,2.419-3.424,10.661,10.661,0,0,1,3.629-2.173,13.005,13.005,0,0,1,4.469-.758,11.8,11.8,0,0,1,2.193.2,14.667,14.667,0,0,1,2.091.553,9.533,9.533,0,0,1,1.845.861,7.754,7.754,0,0,1,1.455,1.128ZM142.106,3.075a17.839,17.839,0,0,1-1.374,2.849,8.58,8.58,0,0,1-1.8,2.132,7.127,7.127,0,0,1-2.46,1.332,11.044,11.044,0,0,1-3.342.451,16.026,16.026,0,0,1-1.947-.123,12.061,12.061,0,0,1-1.743-.328l.738-5.658A7.435,7.435,0,0,0,131.262,4a6.438,6.438,0,0,0,1.086.1,3.037,3.037,0,0,0,2.255-.717,5.811,5.811,0,0,0,1.189-2.03l.656-1.681-8.528-20.09h7.462L139.933-7.3h.123l4.059-13.12h7.134Z" transform="translate(172 93)" fill="#91f4ff"/>
      </g>
      <g id="Group_202" data-name="Group 202">
        <path id="Path_99" data-name="Path 99" d="M14.49,3.15a18.273,18.273,0,0,1-1.407,2.919,8.789,8.789,0,0,1-1.848,2.184,7.3,7.3,0,0,1-2.52,1.365,11.313,11.313,0,0,1-3.423.462,16.417,16.417,0,0,1-2-.126,12.355,12.355,0,0,1-1.785-.336l.756-5.8a7.618,7.618,0,0,0,1.113.273A6.6,6.6,0,0,0,4.494,4.2,3.111,3.111,0,0,0,6.8,3.465,5.953,5.953,0,0,0,8.022,1.386L8.694-.336-.042-20.916H7.6l4.662,13.44h.126l4.158-13.44h7.308ZM52.878-10.542A11.305,11.305,0,0,1,51.954-5.9a10.406,10.406,0,0,1-2.52,3.528,11.536,11.536,0,0,1-3.7,2.247,12.545,12.545,0,0,1-4.494.8,12.6,12.6,0,0,1-4.473-.8,11.24,11.24,0,0,1-3.7-2.247,10.547,10.547,0,0,1-2.5-3.528,11.305,11.305,0,0,1-.924-4.641,11.159,11.159,0,0,1,.924-4.62,10.374,10.374,0,0,1,2.5-3.486,10.866,10.866,0,0,1,3.7-2.184,13.222,13.222,0,0,1,4.473-.756,13.168,13.168,0,0,1,4.494.756,11.14,11.14,0,0,1,3.7,2.184,10.238,10.238,0,0,1,2.52,3.486A11.159,11.159,0,0,1,52.878-10.542Zm-6.636,0a5.969,5.969,0,0,0-.336-1.974,5.22,5.22,0,0,0-.966-1.7,4.91,4.91,0,0,0-1.554-1.2,4.73,4.73,0,0,0-2.142-.462,4.73,4.73,0,0,0-2.142.462,4.673,4.673,0,0,0-1.533,1.2,5.128,5.128,0,0,0-.924,1.7,6.329,6.329,0,0,0-.315,1.974,6.329,6.329,0,0,0,.315,1.974,5.4,5.4,0,0,0,.945,1.743,4.651,4.651,0,0,0,1.554,1.239,4.73,4.73,0,0,0,2.142.462,4.73,4.73,0,0,0,2.142-.462,4.651,4.651,0,0,0,1.554-1.239,5.4,5.4,0,0,0,.945-1.743A6.329,6.329,0,0,0,46.242-10.542ZM75.222,0V-2.9h-.084a5.92,5.92,0,0,1-.987,1.344A6.221,6.221,0,0,1,72.723-.462a8.741,8.741,0,0,1-1.806.756,7.245,7.245,0,0,1-2.079.294,7.6,7.6,0,0,1-3.549-.756,6.874,6.874,0,0,1-2.352-1.953,7.7,7.7,0,0,1-1.3-2.73,12.372,12.372,0,0,1-.4-3.129V-20.916h6.93v11.34a10.768,10.768,0,0,0,.126,1.68,4.2,4.2,0,0,0,.483,1.428,2.669,2.669,0,0,0,.945.987,2.97,2.97,0,0,0,1.554.357,3.152,3.152,0,0,0,2.751-1.344,5.337,5.337,0,0,0,.945-3.15v-11.3h6.888V0ZM105-15.288a5.365,5.365,0,0,0-.9-.168q-.441-.042-.861-.042a4.906,4.906,0,0,0-2.331.5,4.746,4.746,0,0,0-1.512,1.218,4.614,4.614,0,0,0-.819,1.554,5.215,5.215,0,0,0-.252,1.47V0H91.434V-20.916H98.07v3.024h.084a6.789,6.789,0,0,1,2.268-2.6,5.869,5.869,0,0,1,3.4-1.008,7.82,7.82,0,0,1,.819.042,3.154,3.154,0,0,1,.651.126Z" transform="translate(400 373)" fill="none" stroke="#fff" stroke-linecap="round" stroke-width="2"/>
        <path id="Path_98" data-name="Path 98" d="M25.01-20.09a8.9,8.9,0,0,1-.943,4.284A7.747,7.747,0,0,1,21.525-13a11.22,11.22,0,0,1-3.69,1.558,18.914,18.914,0,0,1-4.346.492H10V0H2.993V-29.028h10.66a20.007,20.007,0,0,1,4.448.472,10.491,10.491,0,0,1,3.608,1.517,7.351,7.351,0,0,1,2.419,2.747A9.064,9.064,0,0,1,25.01-20.09ZM18-20.049a3.125,3.125,0,0,0-.41-1.681,2.857,2.857,0,0,0-1.107-1.025,4.749,4.749,0,0,0-1.579-.492,13.193,13.193,0,0,0-1.824-.123H10v6.847h2.952a10.529,10.529,0,0,0,1.886-.164,5.063,5.063,0,0,0,1.62-.574,3.075,3.075,0,0,0,1.127-1.087A3.235,3.235,0,0,0,18-20.049Zm26.445,5.125a5.237,5.237,0,0,0-.882-.164q-.43-.041-.84-.041a4.789,4.789,0,0,0-2.276.492,4.633,4.633,0,0,0-1.476,1.189,4.5,4.5,0,0,0-.8,1.517,5.091,5.091,0,0,0-.246,1.435V0H31.2V-20.418h6.478v2.952h.082a6.627,6.627,0,0,1,2.214-2.542,5.729,5.729,0,0,1,3.321-.984,7.634,7.634,0,0,1,.8.041,3.078,3.078,0,0,1,.635.123Zm28,4.633a11.036,11.036,0,0,1-.9,4.53,10.158,10.158,0,0,1-2.46,3.444A11.261,11.261,0,0,1,65.477-.123,12.246,12.246,0,0,1,61.09.656a12.3,12.3,0,0,1-4.367-.779,10.973,10.973,0,0,1-3.608-2.193A10.3,10.3,0,0,1,50.676-5.76a11.036,11.036,0,0,1-.9-4.53,10.893,10.893,0,0,1,.9-4.51,10.127,10.127,0,0,1,2.439-3.4,10.607,10.607,0,0,1,3.608-2.132,12.907,12.907,0,0,1,4.367-.738,12.854,12.854,0,0,1,4.387.738A10.875,10.875,0,0,1,69.085-18.2a9.994,9.994,0,0,1,2.46,3.4A10.893,10.893,0,0,1,72.447-10.291Zm-6.478,0a5.826,5.826,0,0,0-.328-1.927,5.1,5.1,0,0,0-.943-1.66,4.793,4.793,0,0,0-1.517-1.169A4.617,4.617,0,0,0,61.09-15.5,4.617,4.617,0,0,0,59-15.047a4.562,4.562,0,0,0-1.5,1.169,5.005,5.005,0,0,0-.9,1.66,6.178,6.178,0,0,0-.307,1.927A6.178,6.178,0,0,0,56.6-8.364a5.273,5.273,0,0,0,.923,1.7A4.54,4.54,0,0,0,59.04-5.453,4.617,4.617,0,0,0,61.131-5a4.617,4.617,0,0,0,2.091-.451,4.54,4.54,0,0,0,1.517-1.209,5.273,5.273,0,0,0,.923-1.7A6.178,6.178,0,0,0,65.969-10.291Zm22.14-5.084v7.79a3.493,3.493,0,0,0,.554,2.153,2.376,2.376,0,0,0,1.988.717A7.149,7.149,0,0,0,91.7-4.8a3.587,3.587,0,0,0,.923-.246L92.7-.123a11.1,11.1,0,0,1-1.763.431,12.48,12.48,0,0,1-2.132.185,10.053,10.053,0,0,1-3.444-.513A5.34,5.34,0,0,1,83.127-1.5a5.787,5.787,0,0,1-1.209-2.3,11.132,11.132,0,0,1-.369-2.973v-8.61h-3.28v-5.043h3.239v-5.371h6.6v5.371h4.8v5.043Zm26.117,2.829a4.031,4.031,0,0,0-1-2.747,3.792,3.792,0,0,0-3.014-1.148,5.1,5.1,0,0,0-1.8.308,4.673,4.673,0,0,0-1.435.84,4.157,4.157,0,0,0-.984,1.25,3.661,3.661,0,0,0-.41,1.5Zm6.191,2.583v.82a7.06,7.06,0,0,1-.041.779h-14.8a3.565,3.565,0,0,0,.512,1.558A4.43,4.43,0,0,0,107.195-5.6a5.362,5.362,0,0,0,1.517.8,5.355,5.355,0,0,0,1.743.287A5.657,5.657,0,0,0,113.16-5.1a5.353,5.353,0,0,0,1.8-1.538l4.674,2.952a9.457,9.457,0,0,1-3.792,3.219A12.551,12.551,0,0,1,110.372.656a13.061,13.061,0,0,1-4.346-.718,10.553,10.553,0,0,1-3.588-2.091,9.683,9.683,0,0,1-2.419-3.383,11.326,11.326,0,0,1-.882-4.592,11.491,11.491,0,0,1,.861-4.53,10.242,10.242,0,0,1,2.337-3.444,10.418,10.418,0,0,1,3.485-2.194,11.918,11.918,0,0,1,4.346-.779,11,11,0,0,1,4.141.758,9.014,9.014,0,0,1,3.239,2.194,10.133,10.133,0,0,1,2.112,3.485A13.412,13.412,0,0,1,120.417-9.963Zm22.345-3.854a4.081,4.081,0,0,0-1.558-1.189,4.776,4.776,0,0,0-2.009-.451,4.249,4.249,0,0,0-1.927.431,4.677,4.677,0,0,0-1.476,1.148,5.4,5.4,0,0,0-.964,1.66,5.749,5.749,0,0,0-.348,2.009,6.072,6.072,0,0,0,.328,2.009,4.908,4.908,0,0,0,.964,1.66,4.588,4.588,0,0,0,1.517,1.128,4.661,4.661,0,0,0,1.988.41,5.574,5.574,0,0,0,2.03-.39,3.889,3.889,0,0,0,1.619-1.127l3.731,4.551a8.767,8.767,0,0,1-3.28,1.927,12.917,12.917,0,0,1-4.264.7,13.457,13.457,0,0,1-4.51-.738,10.4,10.4,0,0,1-3.628-2.152,10.106,10.106,0,0,1-2.419-3.424,11.218,11.218,0,0,1-.882-4.551,11.112,11.112,0,0,1,.882-4.51,10.106,10.106,0,0,1,2.419-3.424,10.661,10.661,0,0,1,3.628-2.173,13.005,13.005,0,0,1,4.469-.758,11.805,11.805,0,0,1,2.194.2,14.667,14.667,0,0,1,2.091.553,9.533,9.533,0,0,1,1.845.861,7.755,7.755,0,0,1,1.456,1.128Zm17.958-1.558v7.79a3.493,3.493,0,0,0,.553,2.153,2.376,2.376,0,0,0,1.989.717,7.149,7.149,0,0,0,1.046-.082,3.587,3.587,0,0,0,.923-.246l.082,4.92a11.1,11.1,0,0,1-1.763.431,12.48,12.48,0,0,1-2.132.185,10.053,10.053,0,0,1-3.444-.513A5.34,5.34,0,0,1,155.739-1.5a5.787,5.787,0,0,1-1.21-2.3,11.132,11.132,0,0,1-.369-2.973v-8.61h-3.28v-5.043h3.239v-5.371h6.6v5.371h4.8v5.043Zm19.352-11.562a3.476,3.476,0,0,1-.307,1.455,3.755,3.755,0,0,1-.82,1.169,3.78,3.78,0,0,1-1.23.779,3.993,3.993,0,0,1-1.5.287,3.767,3.767,0,0,1-2.747-1.087,3.519,3.519,0,0,1-1.107-2.6,3.586,3.586,0,0,1,.287-1.414,3.353,3.353,0,0,1,.82-1.169,4.439,4.439,0,0,1,1.23-.8,3.716,3.716,0,0,1,1.517-.307,3.993,3.993,0,0,1,1.5.287,3.78,3.78,0,0,1,1.23.779,3.755,3.755,0,0,1,.82,1.169A3.476,3.476,0,0,1,180.072-26.937ZM172.856,0V-20.418h6.724V0Zm29.561,0V-11.152a9.042,9.042,0,0,0-.144-1.64,4.52,4.52,0,0,0-.471-1.373,2.445,2.445,0,0,0-.923-.943,2.922,2.922,0,0,0-1.5-.349,3.4,3.4,0,0,0-1.578.349,3.194,3.194,0,0,0-1.128.964A4.376,4.376,0,0,0,196-12.731a6.087,6.087,0,0,0-.226,1.66V0H189.01V-20.418h6.519v2.829h.082a6.74,6.74,0,0,1,.964-1.292,5.785,5.785,0,0,1,1.394-1.086,8.674,8.674,0,0,1,1.742-.738,6.865,6.865,0,0,1,2.009-.287,7.547,7.547,0,0,1,3.485.738,6.66,6.66,0,0,1,2.316,1.906,7.505,7.505,0,0,1,1.271,2.686,12.158,12.158,0,0,1,.389,3.034V0Zm37.6-1.927a14.334,14.334,0,0,1-.861,5.207,9.781,9.781,0,0,1-2.419,3.669,9.9,9.9,0,0,1-3.793,2.173A16.1,16.1,0,0,1,228,9.84a20.041,20.041,0,0,1-5.555-.82,15.231,15.231,0,0,1-4.941-2.378l3.362-4.8a9.853,9.853,0,0,0,3.26,1.947,10.4,10.4,0,0,0,3.505.635A5.615,5.615,0,0,0,232,2.87a5.924,5.924,0,0,0,1.415-4.141V-2.5h-.123a6.628,6.628,0,0,1-2.542,1.968A8.615,8.615,0,0,1,227.1.2a9.7,9.7,0,0,1-4.141-.841A9.084,9.084,0,0,1,219.9-2.911,9.958,9.958,0,0,1,218-6.253a12.326,12.326,0,0,1-.656-4.038A12.509,12.509,0,0,1,218-14.35a10.384,10.384,0,0,1,1.906-3.4,9.3,9.3,0,0,1,3.055-2.358,9.22,9.22,0,0,1,4.1-.882,9.033,9.033,0,0,1,3.69.779,6.394,6.394,0,0,1,2.829,2.419h.082v-2.624h6.355Zm-6.4-8.4a5.632,5.632,0,0,0-.349-1.968,5.005,5.005,0,0,0-1-1.66,4.751,4.751,0,0,0-1.558-1.128,4.9,4.9,0,0,0-2.05-.41,4.763,4.763,0,0,0-2.029.41,4.5,4.5,0,0,0-1.5,1.107,4.863,4.863,0,0,0-.943,1.64,6.072,6.072,0,0,0-.328,2.009,5.947,5.947,0,0,0,.328,1.968,5.1,5.1,0,0,0,.943,1.661,4.61,4.61,0,0,0,1.5,1.148,4.569,4.569,0,0,0,2.029.431,4.838,4.838,0,0,0,2.071-.431,4.86,4.86,0,0,0,1.558-1.128,4.953,4.953,0,0,0,.984-1.64A5.749,5.749,0,0,0,233.618-10.332Z" transform="translate(349 315)" fill="#fff"/>
        <path id="Path_97" data-name="Path 97" d="M2.706,0V-31H9.512V0Zm30.3-12.546a4.031,4.031,0,0,0-1-2.747,3.792,3.792,0,0,0-3.014-1.148,5.1,5.1,0,0,0-1.8.308,4.673,4.673,0,0,0-1.435.84,4.157,4.157,0,0,0-.984,1.25,3.661,3.661,0,0,0-.41,1.5ZM39.2-9.963v.82a7.061,7.061,0,0,1-.041.779h-14.8a3.565,3.565,0,0,0,.513,1.558A4.43,4.43,0,0,0,25.973-5.6a5.362,5.362,0,0,0,1.517.8,5.355,5.355,0,0,0,1.743.287A5.657,5.657,0,0,0,31.939-5.1a5.353,5.353,0,0,0,1.8-1.538L38.417-3.69A9.457,9.457,0,0,1,34.625-.472,12.551,12.551,0,0,1,29.151.656a13.061,13.061,0,0,1-4.346-.718,10.553,10.553,0,0,1-3.587-2.091A9.683,9.683,0,0,1,18.8-5.535a11.327,11.327,0,0,1-.882-4.592,11.491,11.491,0,0,1,.861-4.53A10.242,10.242,0,0,1,21.115-18.1,10.418,10.418,0,0,1,24.6-20.3a11.918,11.918,0,0,1,4.346-.779,11,11,0,0,1,4.141.758,9.014,9.014,0,0,1,3.239,2.194,10.133,10.133,0,0,1,2.111,3.485A13.412,13.412,0,0,1,39.2-9.963Zm29.93,8.036a14.334,14.334,0,0,1-.861,5.207,9.781,9.781,0,0,1-2.419,3.669,9.9,9.9,0,0,1-3.793,2.173,16.1,16.1,0,0,1-4.94.718,20.041,20.041,0,0,1-5.556-.82,15.231,15.231,0,0,1-4.94-2.378l3.362-4.8a9.853,9.853,0,0,0,3.26,1.947,10.4,10.4,0,0,0,3.505.635A5.615,5.615,0,0,0,61.111,2.87a5.924,5.924,0,0,0,1.415-4.141V-2.5H62.4A6.627,6.627,0,0,1,59.86-.533,8.615,8.615,0,0,1,56.211.2,9.7,9.7,0,0,1,52.07-.636a9.084,9.084,0,0,1-3.055-2.275,9.958,9.958,0,0,1-1.906-3.342,12.326,12.326,0,0,1-.656-4.038,12.508,12.508,0,0,1,.656-4.059,10.384,10.384,0,0,1,1.906-3.4,9.3,9.3,0,0,1,3.055-2.358,9.22,9.22,0,0,1,4.1-.882,9.033,9.033,0,0,1,3.69.779,6.394,6.394,0,0,1,2.829,2.419h.082v-2.624h6.355Zm-6.4-8.4a5.632,5.632,0,0,0-.348-1.968,5.005,5.005,0,0,0-1-1.66,4.751,4.751,0,0,0-1.558-1.128,4.9,4.9,0,0,0-2.05-.41,4.763,4.763,0,0,0-2.029.41,4.5,4.5,0,0,0-1.5,1.107,4.863,4.863,0,0,0-.943,1.64,6.072,6.072,0,0,0-.328,2.009A5.948,5.948,0,0,0,53.3-8.364,5.1,5.1,0,0,0,54.243-6.7a4.61,4.61,0,0,0,1.5,1.148,4.569,4.569,0,0,0,2.029.431,4.838,4.838,0,0,0,2.07-.431A4.86,4.86,0,0,0,61.4-6.683a4.953,4.953,0,0,0,.984-1.64A5.749,5.749,0,0,0,62.73-10.332ZM90.61-8.9h-.861q-1.107,0-2.235.1a9.191,9.191,0,0,0-2.009.389,3.715,3.715,0,0,0-1.455.84,1.93,1.93,0,0,0-.574,1.455,1.766,1.766,0,0,0,.267.984,2.067,2.067,0,0,0,.676.656,2.87,2.87,0,0,0,.943.348,5.428,5.428,0,0,0,1.025.1,4.155,4.155,0,0,0,3.136-1.127A4.217,4.217,0,0,0,90.61-8.2ZM78.269-17.63a11.775,11.775,0,0,1,4.2-2.583,14.4,14.4,0,0,1,4.9-.861,13.1,13.1,0,0,1,4.367.635,6.506,6.506,0,0,1,2.89,1.968,8.393,8.393,0,0,1,1.619,3.362,19.866,19.866,0,0,1,.513,4.818V0H90.61V-2.173h-.123A5.06,5.06,0,0,1,88.13-.2a8.38,8.38,0,0,1-3.424.7A10.467,10.467,0,0,1,82.164.164,7.446,7.446,0,0,1,79.766-.9,5.773,5.773,0,0,1,77.982-2.87a6.075,6.075,0,0,1-.7-3.034,5.151,5.151,0,0,1,1.21-3.567,7.936,7.936,0,0,1,3.116-2.091,16.508,16.508,0,0,1,4.243-.984,43.476,43.476,0,0,1,4.551-.246v-.328a2.5,2.5,0,0,0-1.066-2.234,4.593,4.593,0,0,0-2.624-.718,6.532,6.532,0,0,0-2.767.615,8.834,8.834,0,0,0-2.276,1.476Zm41.656,3.813a4.081,4.081,0,0,0-1.558-1.189,4.776,4.776,0,0,0-2.009-.451,4.249,4.249,0,0,0-1.927.431,4.677,4.677,0,0,0-1.476,1.148,5.4,5.4,0,0,0-.964,1.66,5.749,5.749,0,0,0-.349,2.009,6.072,6.072,0,0,0,.328,2.009,4.907,4.907,0,0,0,.964,1.66,4.588,4.588,0,0,0,1.517,1.128A4.661,4.661,0,0,0,116.44-5a5.574,5.574,0,0,0,2.029-.39,3.889,3.889,0,0,0,1.619-1.127l3.731,4.551a8.767,8.767,0,0,1-3.28,1.927,12.917,12.917,0,0,1-4.264.7,13.457,13.457,0,0,1-4.51-.738,10.4,10.4,0,0,1-3.629-2.152,10.106,10.106,0,0,1-2.419-3.424,11.218,11.218,0,0,1-.882-4.551,11.112,11.112,0,0,1,.882-4.51,10.106,10.106,0,0,1,2.419-3.424,10.661,10.661,0,0,1,3.629-2.173,13.005,13.005,0,0,1,4.469-.758,11.8,11.8,0,0,1,2.193.2,14.667,14.667,0,0,1,2.091.553,9.533,9.533,0,0,1,1.845.861,7.754,7.754,0,0,1,1.455,1.128ZM142.106,3.075a17.839,17.839,0,0,1-1.374,2.849,8.58,8.58,0,0,1-1.8,2.132,7.127,7.127,0,0,1-2.46,1.332,11.044,11.044,0,0,1-3.342.451,16.026,16.026,0,0,1-1.947-.123,12.061,12.061,0,0,1-1.743-.328l.738-5.658A7.435,7.435,0,0,0,131.262,4a6.438,6.438,0,0,0,1.086.1,3.037,3.037,0,0,0,2.255-.717,5.811,5.811,0,0,0,1.189-2.03l.656-1.681-8.528-20.09h7.462L139.933-7.3h.123l4.059-13.12h7.134Z" transform="translate(522 371)" fill="#643694"/>
      </g>
    </g>
  </g>
</svg>
