<svg xmlns="http://www.w3.org/2000/svg" xmlns:xlink="http://www.w3.org/1999/xlink" width="375" height="59" viewBox="0 0 375 59">
  <defs>
    <clipPath id="clip-path">
      <rect id="Rectangle_102" data-name="Rectangle 102" width="375" height="59" transform="translate(0 1154)" fill="#fff" stroke="#707070" stroke-width="1"/>
    </clipPath>
  </defs>
  <g id="reason-h2" transform="translate(0 -1154)" clip-path="url(#clip-path)">
    <g id="Group_204" data-name="Group 204">
      <path id="Path_102" data-name="Path 102" d="M13.28,0H7.52V-56.64H24.16a35.19,35.19,0,0,1,7.72.8,17.4,17.4,0,0,1,6.16,2.6,12.265,12.265,0,0,1,4.04,4.68,15.625,15.625,0,0,1,1.44,7.04,14.022,14.022,0,0,1-1.12,5.68,13.993,13.993,0,0,1-3.04,4.44,14.579,14.579,0,0,1-4.56,3,19.849,19.849,0,0,1-5.76,1.44L45.6,0H38.56L22.88-26.48h-9.6Zm0-31.44h10q6.96,0,10.72-2.52a8.494,8.494,0,0,0,3.76-7.56,9.8,9.8,0,0,0-1.04-4.72,8.511,8.511,0,0,0-2.88-3.12,13.117,13.117,0,0,0-4.48-1.76,28.2,28.2,0,0,0-5.84-.56H13.28ZM69.2-5.12H99.52V0H63.44V-56.64H98.56v5.12H69.2V-32H96.64v5.04H69.2ZM118.4,0h-6.32l24.48-56.64h5.6L166.48,0h-6.4l-6.24-14.88H124.56Zm8.32-20.16h24.96L139.2-50.24Zm83.52-27.36a13.834,13.834,0,0,0-4.72-4.12,14.43,14.43,0,0,0-6.96-1.56,14.878,14.878,0,0,0-4.24.64,12.3,12.3,0,0,0-3.92,1.96,10.074,10.074,0,0,0-2.84,3.32,9.791,9.791,0,0,0-1.08,4.72,8.7,8.7,0,0,0,1.04,4.48,9.852,9.852,0,0,0,2.76,3,16.024,16.024,0,0,0,3.92,2.04q2.2.8,4.6,1.6,2.96.96,5.96,2.08a21.432,21.432,0,0,1,5.4,2.92,14.141,14.141,0,0,1,3.92,4.56,14.4,14.4,0,0,1,1.52,7,15.369,15.369,0,0,1-1.64,7.32,15.494,15.494,0,0,1-4.24,5.08A17.646,17.646,0,0,1,203.8.48a23.94,23.94,0,0,1-6.68.96A25.661,25.661,0,0,1,192,.92a23.16,23.16,0,0,1-4.88-1.56,19.959,19.959,0,0,1-4.32-2.64,19.191,19.191,0,0,1-3.52-3.68l4.96-3.68a15.183,15.183,0,0,0,5.16,5.08,14.6,14.6,0,0,0,7.8,2.04,15.1,15.1,0,0,0,4.4-.68,12.372,12.372,0,0,0,4.04-2.08,11.522,11.522,0,0,0,2.96-3.44,9.465,9.465,0,0,0,1.16-4.76,9.53,9.53,0,0,0-1.16-4.92,10.326,10.326,0,0,0-3.08-3.28,18.852,18.852,0,0,0-4.4-2.2q-2.48-.88-5.2-1.76-2.8-.88-5.52-2a18.67,18.67,0,0,1-4.88-2.92A13.638,13.638,0,0,1,182.04-36a14.39,14.39,0,0,1-1.32-6.48,14.309,14.309,0,0,1,1.64-7.04,14.833,14.833,0,0,1,4.28-4.88,17.922,17.922,0,0,1,5.84-2.8,23.759,23.759,0,0,1,6.32-.88,21.805,21.805,0,0,1,9.84,2.04,16.887,16.887,0,0,1,6.16,4.84Zm81.68,19.2a31.01,31.01,0,0,1-2.24,11.92,28.445,28.445,0,0,1-6.2,9.4,28.548,28.548,0,0,1-9.36,6.2A30.285,30.285,0,0,1,262.4,1.44,30.285,30.285,0,0,1,250.68-.8,28.548,28.548,0,0,1,241.32-7a28.446,28.446,0,0,1-6.2-9.4,31.01,31.01,0,0,1-2.24-11.92,31.01,31.01,0,0,1,2.24-11.92,28.446,28.446,0,0,1,6.2-9.4,28.548,28.548,0,0,1,9.36-6.2,30.285,30.285,0,0,1,11.72-2.24,30.285,30.285,0,0,1,11.72,2.24,28.548,28.548,0,0,1,9.36,6.2,28.446,28.446,0,0,1,6.2,9.4A31.01,31.01,0,0,1,291.92-28.32Zm-6.08,0a27.854,27.854,0,0,0-1.6-9.44,23.6,23.6,0,0,0-4.64-7.88,22.215,22.215,0,0,0-7.4-5.4,23.239,23.239,0,0,0-9.8-2,23.239,23.239,0,0,0-9.8,2,22.215,22.215,0,0,0-7.4,5.4,23.594,23.594,0,0,0-4.64,7.88,27.855,27.855,0,0,0-1.6,9.44,27.855,27.855,0,0,0,1.6,9.44,23.154,23.154,0,0,0,4.64,7.84,22.485,22.485,0,0,0,7.4,5.36,23.239,23.239,0,0,0,9.8,2,23.239,23.239,0,0,0,9.8-2,22.484,22.484,0,0,0,7.4-5.36,23.154,23.154,0,0,0,4.64-7.84A27.854,27.854,0,0,0,285.84-28.32ZM352.08-8.4h.16V-56.64H358V0h-7.2L317.84-48.72h-.16V0h-5.76V-56.64h7.2Zm56.4-39.12a13.833,13.833,0,0,0-4.72-4.12,14.43,14.43,0,0,0-6.96-1.56,14.879,14.879,0,0,0-4.24.64,12.3,12.3,0,0,0-3.92,1.96,10.074,10.074,0,0,0-2.84,3.32,9.791,9.791,0,0,0-1.08,4.72,8.7,8.7,0,0,0,1.04,4.48,9.852,9.852,0,0,0,2.76,3,16.023,16.023,0,0,0,3.92,2.04q2.2.8,4.6,1.6,2.96.96,5.96,2.08a21.432,21.432,0,0,1,5.4,2.92,14.141,14.141,0,0,1,3.92,4.56,14.4,14.4,0,0,1,1.52,7,15.369,15.369,0,0,1-1.64,7.32,15.494,15.494,0,0,1-4.24,5.08A17.646,17.646,0,0,1,402.04.48a23.94,23.94,0,0,1-6.68.96,25.661,25.661,0,0,1-5.12-.52,23.16,23.16,0,0,1-4.88-1.56,19.96,19.96,0,0,1-4.32-2.64,19.191,19.191,0,0,1-3.52-3.68l4.96-3.68a15.183,15.183,0,0,0,5.16,5.08,14.6,14.6,0,0,0,7.8,2.04,15.1,15.1,0,0,0,4.4-.68,12.373,12.373,0,0,0,4.04-2.08,11.522,11.522,0,0,0,2.96-3.44A9.465,9.465,0,0,0,408-14.48a9.53,9.53,0,0,0-1.16-4.92,10.327,10.327,0,0,0-3.08-3.28,18.851,18.851,0,0,0-4.4-2.2q-2.48-.88-5.2-1.76-2.8-.88-5.52-2a18.671,18.671,0,0,1-4.88-2.92A13.638,13.638,0,0,1,380.28-36a14.39,14.39,0,0,1-1.32-6.48,14.31,14.31,0,0,1,1.64-7.04,14.833,14.833,0,0,1,4.28-4.88,17.922,17.922,0,0,1,5.84-2.8,23.759,23.759,0,0,1,6.32-.88,21.805,21.805,0,0,1,9.84,2.04,16.887,16.887,0,0,1,6.16,4.84Z" transform="translate(-22 1212)" fill="#643694" opacity="0.05"/>
      <path id="Path_103" data-name="Path 103" d="M-147.147-18.408h3.588L-140-4.888h.052l4.056-13.52h3.38l3.978,13.52h.052l3.64-13.52h3.484L-126.737,0h-3.172l-4.316-13.806h-.052L-138.593,0h-3.172Zm29.276,0h3.276v7.436h8.606v-7.436h3.276V0h-3.276V-8.164h-8.606V0h-3.276Zm24.96,10.426-6.916-10.426h4l4.628,7.748,4.68-7.748h3.8L-89.635-7.982V0h-3.276ZM-58.045-6.76a7.573,7.573,0,0,1-.572,3,6.733,6.733,0,0,1-1.56,2.275,6.862,6.862,0,0,1-2.34,1.443,8.3,8.3,0,0,1-2.938.507,8.3,8.3,0,0,1-2.938-.507,7,7,0,0,1-2.353-1.443,6.5,6.5,0,0,1-1.56-2.275,7.727,7.727,0,0,1-.559-3V-18.408h3.276V-6.89a6.278,6.278,0,0,0,.208,1.6,3.926,3.926,0,0,0,.689,1.417A3.557,3.557,0,0,0-67.418-2.86a4.426,4.426,0,0,0,1.963.39,4.426,4.426,0,0,0,1.963-.39,3.557,3.557,0,0,0,1.274-1.014,3.926,3.926,0,0,0,.689-1.417,6.278,6.278,0,0,0,.208-1.6V-18.408h3.276Zm14.586-7.8a3.977,3.977,0,0,0-1.469-1.131,4.383,4.383,0,0,0-1.911-.455A4.7,4.7,0,0,0-47.983-16a3.488,3.488,0,0,0-1.04.442,2.443,2.443,0,0,0-.767.78,2.148,2.148,0,0,0-.3,1.157,2.067,2.067,0,0,0,.26,1.066,2.366,2.366,0,0,0,.715.754,4.863,4.863,0,0,0,1.1.546q.65.234,1.43.468.884.286,1.833.65A7.1,7.1,0,0,1-43-9.178,4.767,4.767,0,0,1-41.7-7.67,4.6,4.6,0,0,1-41.2-5.408a5.774,5.774,0,0,1-.546,2.587A5.338,5.338,0,0,1-43.2-.988,6.209,6.209,0,0,1-45.331.1,8.97,8.97,0,0,1-47.9.468a9.663,9.663,0,0,1-3.51-.663,6.779,6.779,0,0,1-2.808-1.963l2.34-2.184A4.7,4.7,0,0,0-50.076-2.86a5.088,5.088,0,0,0,2.223.546,5.021,5.021,0,0,0,1.17-.143A3.119,3.119,0,0,0-45.6-2.938a2.693,2.693,0,0,0,.78-.845,2.447,2.447,0,0,0,.3-1.261,2.052,2.052,0,0,0-.338-1.209,3.023,3.023,0,0,0-.91-.832A6.533,6.533,0,0,0-47.125-7.7l-1.638-.546a16.227,16.227,0,0,1-1.664-.624,5.518,5.518,0,0,1-1.495-.962A4.649,4.649,0,0,1-53-11.3a5.025,5.025,0,0,1-.416-2.171,4.758,4.758,0,0,1,.585-2.418A5.173,5.173,0,0,1-51.3-17.563a6.827,6.827,0,0,1,2.158-.988,9.424,9.424,0,0,1,2.457-.325,8.752,8.752,0,0,1,2.847.494A6.956,6.956,0,0,1-41.327-16.9Zm6.838-3.848h12.194v2.86h-8.918v4.68h8.45v2.756h-8.45v5.2h9.386V0H-36.621Zm30.264,0h2.834L4.407,0H.663L-1.053-4.212H-9.035L-10.7,0h-3.666ZM-2.2-7.02l-2.834-7.488L-7.917-7.02ZM14.859-18.408h7.176a8.648,8.648,0,0,1,2.054.247,5.265,5.265,0,0,1,1.807.806,4.308,4.308,0,0,1,1.287,1.443,4.308,4.308,0,0,1,.494,2.132,3.775,3.775,0,0,1-.884,2.574A4.916,4.916,0,0,1,24.479-9.75V-9.7a4.824,4.824,0,0,1,2.86,1.352,4.041,4.041,0,0,1,1.118,2.99,4.966,4.966,0,0,1-.6,2.535A4.788,4.788,0,0,1,26.286-1.17a6.763,6.763,0,0,1-2.236.9A12.069,12.069,0,0,1,21.489,0h-6.63Zm3.276,7.488h2.912a4.082,4.082,0,0,0,2.5-.65,2.179,2.179,0,0,0,.858-1.846,1.883,1.883,0,0,0-.884-1.768,5.619,5.619,0,0,0-2.756-.52H18.135Zm0,8.164h2.938a10.947,10.947,0,0,0,1.352-.091,4.435,4.435,0,0,0,1.339-.377,2.625,2.625,0,0,0,1.014-.832,2.4,2.4,0,0,0,.4-1.456,2.144,2.144,0,0,0-.988-2.028,6.126,6.126,0,0,0-2.99-.572H18.135ZM32.981-18.408h6.4a11.533,11.533,0,0,1,2.522.273,6.486,6.486,0,0,1,2.171.9A4.68,4.68,0,0,1,45.591-15.6a4.958,4.958,0,0,1,.572,2.47,4.7,4.7,0,0,1-1.131,3.263,5.7,5.7,0,0,1-3.081,1.7L46.865,0H42.913L38.649-7.8H36.257V0H32.981Zm5.954,7.93a9.568,9.568,0,0,0,1.4-.1,4.054,4.054,0,0,0,1.261-.39,2.462,2.462,0,0,0,.923-.819,2.37,2.37,0,0,0,.364-1.365,2.1,2.1,0,0,0-.338-1.235,2.517,2.517,0,0,0-.858-.767,3.589,3.589,0,0,0-1.183-.39,8.3,8.3,0,0,0-1.287-.1H36.257v5.174ZM49.751-9.256a10.3,10.3,0,0,1,.741-3.991,8.763,8.763,0,0,1,2.054-3.029,9.094,9.094,0,0,1,3.12-1.924,11.156,11.156,0,0,1,3.939-.676,11.341,11.341,0,0,1,3.978.676,9.209,9.209,0,0,1,3.146,1.924A8.676,8.676,0,0,1,68.8-13.247a10.3,10.3,0,0,1,.741,3.991A10.158,10.158,0,0,1,68.8-5.317a9.083,9.083,0,0,1-2.067,3.068,9.389,9.389,0,0,1-3.146,2,10.786,10.786,0,0,1-3.978.715,10.612,10.612,0,0,1-3.939-.715,9.275,9.275,0,0,1-3.12-2,9.178,9.178,0,0,1-2.054-3.068A10.158,10.158,0,0,1,49.751-9.256Zm3.562,0a7.805,7.805,0,0,0,.455,2.717,6.328,6.328,0,0,0,1.3,2.145,5.971,5.971,0,0,0,2,1.417,6.313,6.313,0,0,0,2.561.507,6.405,6.405,0,0,0,2.574-.507A5.937,5.937,0,0,0,64.22-4.394a6.328,6.328,0,0,0,1.3-2.145,7.805,7.805,0,0,0,.455-2.717,7.542,7.542,0,0,0-.455-2.652,6.466,6.466,0,0,0-1.287-2.132,5.954,5.954,0,0,0-2-1.43,6.332,6.332,0,0,0-2.6-.52,6.242,6.242,0,0,0-2.587.52,5.989,5.989,0,0,0-1.989,1.43,6.466,6.466,0,0,0-1.287,2.132A7.542,7.542,0,0,0,53.313-9.256Zm20.7-9.152h3.276v7.956h.078l7.7-7.956h4.42l-8.606,8.5L90.051,0h-4.6L77.363-9.23h-.078V0H74.009Zm19.214,0h12.194v2.86H96.5v4.68h8.45v2.756H96.5v5.2h9.386V0H93.223Zm17.16,0h6.4a11.533,11.533,0,0,1,2.522.273,6.486,6.486,0,0,1,2.171.9,4.68,4.68,0,0,1,1.521,1.638,4.958,4.958,0,0,1,.572,2.47,4.7,4.7,0,0,1-1.131,3.263,5.7,5.7,0,0,1-3.081,1.7L124.267,0h-3.952l-4.264-7.8h-2.392V0h-3.276Zm5.954,7.93a9.568,9.568,0,0,0,1.4-.1,4.054,4.054,0,0,0,1.261-.39,2.462,2.462,0,0,0,.923-.819,2.37,2.37,0,0,0,.364-1.365,2.1,2.1,0,0,0-.338-1.235,2.517,2.517,0,0,0-.858-.767,3.589,3.589,0,0,0-1.183-.39,8.3,8.3,0,0,0-1.287-.1h-2.964v5.174Zm22.932,5.044v-.988a6.209,6.209,0,0,1,.091-1.118,4.191,4.191,0,0,1,.286-.936,4.051,4.051,0,0,1,.52-.858,8.172,8.172,0,0,1,.819-.884l1.17-1.118a4.816,4.816,0,0,0,.845-.988,2.4,2.4,0,0,0,.351-1.326,2.414,2.414,0,0,0-.637-1.7,2.339,2.339,0,0,0-1.807-.689,2.555,2.555,0,0,0-1.079.221,2.617,2.617,0,0,0-.832.6,2.566,2.566,0,0,0-.533.871,3.409,3.409,0,0,0-.208,1.014l-3.2-.286a6.537,6.537,0,0,1,.663-2.223,5.347,5.347,0,0,1,1.313-1.651,5.658,5.658,0,0,1,1.846-1.027,6.948,6.948,0,0,1,2.236-.351,6.82,6.82,0,0,1,2.119.325,5.3,5.3,0,0,1,1.768.962,4.528,4.528,0,0,1,1.209,1.573,5,5,0,0,1,.442,2.158,5.222,5.222,0,0,1-.182,1.456,4.29,4.29,0,0,1-.52,1.144,6.192,6.192,0,0,1-.819,1q-.481.481-1.079,1-.52.442-.845.78a3.535,3.535,0,0,0-.52.676,2.381,2.381,0,0,0-.273.728,5.008,5.008,0,0,0-.078.962v.676Zm-.52,3.614a1.931,1.931,0,0,1,.611-1.43,2.025,2.025,0,0,1,1.469-.6,2.087,2.087,0,0,1,1.456.572,1.831,1.831,0,0,1,.624,1.4,1.931,1.931,0,0,1-.611,1.43,2.025,2.025,0,0,1-1.469.6A2.054,2.054,0,0,1,140.036,0a2.262,2.262,0,0,1-.663-.416,1.933,1.933,0,0,1-.455-.624A1.83,1.83,0,0,1,138.749-1.82Z" transform="translate(188 1201)" fill="#643694"/>
    </g>
  </g>
</svg>
